<mxfile host="65bd71144e" scale="1.5" border="0">
    <diagram id="MCh7n6H1EEj0p_rM8pi-" name="ページ1">
        <mxGraphModel dx="2242" dy="1144" grid="1" gridSize="10" guides="1" tooltips="1" connect="1" arrows="1" fold="1" page="1" pageScale="1" pageWidth="1600" pageHeight="900" math="0" shadow="0">
            <root>
                <mxCell id="0"/>
                <mxCell id="1" parent="0"/>
                <mxCell id="11" value="" style="endArrow=classic;html=1;endFill=1;strokeWidth=5;" parent="1" edge="1">
                    <mxGeometry width="50" height="50" relative="1" as="geometry">
                        <mxPoint x="-1320" y="180" as="sourcePoint"/>
                        <mxPoint x="-1240" y="179.66" as="targetPoint"/>
                    </mxGeometry>
                </mxCell>
                <mxCell id="13" value="" style="verticalLabelPosition=bottom;verticalAlign=top;html=1;shape=mxgraph.basic.polygon;polyCoords=[[0,1],[0,0.5],[1,0],[1,0.5]];polyline=0;fillColor=#000000;strokeColor=#FFFFFF;" parent="1" vertex="1">
                    <mxGeometry x="-980" y="80" width="80" height="200" as="geometry"/>
                </mxCell>
                <mxCell id="16" value="" style="endArrow=classic;html=1;endFill=1;strokeWidth=5;" parent="1" edge="1">
                    <mxGeometry width="50" height="50" relative="1" as="geometry">
                        <mxPoint x="-1320" y="510" as="sourcePoint"/>
                        <mxPoint x="-1240" y="510" as="targetPoint"/>
                    </mxGeometry>
                </mxCell>
                <mxCell id="21" value="" style="endArrow=classic;startArrow=classic;html=1;strokeWidth=2;dashed=1;" parent="1" edge="1">
                    <mxGeometry width="100" height="100" relative="1" as="geometry">
                        <mxPoint x="-1180.34" y="380" as="sourcePoint"/>
                        <mxPoint x="-1180.34" y="310" as="targetPoint"/>
                    </mxGeometry>
                </mxCell>
                <mxCell id="22" value="Transition" style="text;html=1;align=center;verticalAlign=middle;resizable=0;points=[];autosize=1;strokeColor=none;fillColor=none;fontSize=16;" parent="1" vertex="1">
                    <mxGeometry x="-1275" y="330" width="90" height="30" as="geometry"/>
                </mxCell>
                <mxCell id="23" value="" style="endArrow=classic;html=1;endFill=1;strokeWidth=5;" parent="1" edge="1">
                    <mxGeometry width="50" height="50" relative="1" as="geometry">
                        <mxPoint x="-880" y="179.74999999999997" as="sourcePoint"/>
                        <mxPoint x="-800" y="180.11" as="targetPoint"/>
                        <Array as="points"/>
                    </mxGeometry>
                </mxCell>
                <mxCell id="25" value="Program" style="text;html=1;align=center;verticalAlign=middle;resizable=0;points=[];autosize=1;strokeColor=none;fillColor=none;fontSize=16;" parent="1" vertex="1">
                    <mxGeometry x="-1515" y="165" width="80" height="30" as="geometry"/>
                </mxCell>
                <mxCell id="26" value="Preview" style="text;html=1;align=center;verticalAlign=middle;resizable=0;points=[];autosize=1;strokeColor=none;fillColor=none;fontSize=16;" parent="1" vertex="1">
                    <mxGeometry x="-1515" y="495" width="80" height="30" as="geometry"/>
                </mxCell>
                <mxCell id="28" value="" style="endArrow=none;html=1;" parent="1" edge="1">
                    <mxGeometry width="50" height="50" relative="1" as="geometry">
                        <mxPoint x="-1430" y="400" as="sourcePoint"/>
                        <mxPoint x="-1130" y="400" as="targetPoint"/>
                        <Array as="points">
                            <mxPoint x="-1430" y="390"/>
                            <mxPoint x="-1130" y="390"/>
                        </Array>
                    </mxGeometry>
                </mxCell>
                <mxCell id="30" value="" style="endArrow=none;html=1;" parent="1" edge="1">
                    <mxGeometry width="50" height="50" relative="1" as="geometry">
                        <mxPoint x="-1430" y="290" as="sourcePoint"/>
                        <mxPoint x="-1130" y="290" as="targetPoint"/>
                        <Array as="points">
                            <mxPoint x="-1430" y="300"/>
                            <mxPoint x="-1130" y="300"/>
                        </Array>
                    </mxGeometry>
                </mxCell>
                <mxCell id="35" value="" style="shape=image;verticalLabelPosition=bottom;labelBackgroundColor=default;verticalAlign=top;imageAspect=0;image=data:image/webp,UklGRk4xAABXRUJQVlA4WAoAAAA8AAAAfAAAKwEASUNDUKACAAAAAAKgbGNtcwQwAABtbnRyUkdCIFhZWiAH5wAJAA8ADgADAAZhY3NwQVBQTAAAAAAAAAAAAAAAAAAAAAAAAAAAAAAAAAAA9tYAAQAAAADTLWxjbXMAAAAAAAAAAAAAAAAAAAAAAAAAAAAAAAAAAAAAAAAAAAAAAAAAAAAAAAAAAAAAAA1kZXNjAAABIAAAAEBjcHJ0AAABYAAAADZ3dHB0AAABmAAAABRjaGFkAAABrAAAACxyWFlaAAAB2AAAABRiWFlaAAAB7AAAABRnWFlaAAACAAAAABRyVFJDAAACFAAAACBnVFJDAAACFAAAACBiVFJDAAACFAAAACBjaHJtAAACNAAAACRkbW5kAAACWAAAACRkbWRkAAACfAAAACRtbHVjAAAAAAAAAAEAAAAMZW5VUwAAACQAAAAcAEcASQBNAFAAIABiAHUAaQBsAHQALQBpAG4AIABzAFIARwBCbWx1YwAAAAAAAAABAAAADGVuVVMAAAAaAAAAHABQAHUAYgBsAGkAYwAgAEQAbwBtAGEAaQBuAABYWVogAAAAAAAA9tYAAQAAAADTLXNmMzIAAAAAAAEMQgAABd7///MlAAAHkwAA/ZD///uh///9ogAAA9wAAMBuWFlaIAAAAAAAAG+gAAA49QAAA5BYWVogAAAAAAAAJJ8AAA+EAAC2xFhZWiAAAAAAAABilwAAt4cAABjZcGFyYQAAAAAAAwAAAAJmZgAA8qcAAA1ZAAAT0AAACltjaHJtAAAAAAADAAAAAKPXAABUfAAATM0AAJmaAAAmZwAAD1xtbHVjAAAAAAAAAAEAAAAMZW5VUwAAAAgAAAAcAEcASQBNAFBtbHVjAAAAAAAAAAEAAAAMZW5VUwAAAAgAAAAcAHMAUgBHAEJBTFBIpgAAAA1wU2vb2nzBLQoiogJaAxXCOzOjABTSnQRURBV0Cyp4ltAfEWbTtnEJ3bz7BSGf3iajVStkSi3y3DV5zikGY88isr2moe3lZM0umVS7NUfb63Fybhe2vdApgpX/Eaz8j2DlfwSL7CPyoiZ6Nx1M/HiS//dM3m9M3r+jgfEWOtl+j9H2T7Jml0yq3Z+j7TctObcL217oFMHK/whW/kew8j+CRYa6gBFWUDggfgwAABA6AJ0BKn0ALAE+bTCUSCQioaElELwogA2JZT854iF3/p8Aqex55EmKV/o6fzNLlZ/8/mRzc2IBlG0B1GeeZ/iA/QC44Ze+nya3cEDvpi20XmA82bTk96X/a7Cd/6N+AH6weCnxB7CUwsnH/Q+wntf/fu0lv4IAN1nT5aAn8r83vSZ9X+wn+u3W5M0/cUeRfYpAwSSA4Vyhsj2JJAff2l1CygqmUyowPRsMJ2GD6COf+cmFiuY30Q+/wZ7kFqGDg3IymTTEzGCyFgDAXU+ya+hF5Pt5/xZM8fSWi6GXUCS4kwTDFTQwvCraQ5AVHzJXbJwxhbcPXaaVBSJgqEXKn9U7H2stx7nf1k+Pp7DvMd2ZQxzuKno2+umkpgMP3sKkPMVXjIMD2u7dADirBGAi1OOPEoA0N+IOwlraH4mB/pnF7FhKRVIzCnzlIyPJ6fZ0znExxnk46JZhV/tAt1l+rK/O3062GQLBWRVqmc/iZsCjsYh5Lc0c/C5C4zwZITPmp+eYQVGBZBka2MZDQmW4hlEXztSacXM+vgvoBgFVmjwqmzIyV/DOsr/hbdVy45Y6h/KLGThkRBo9z0d+BOnG7NhzITFWrWz1f0YsS4DrL5CzFXqpD3SDe9AAAP7VyYAYXninHsM1lWs83Z+HwBLr2tbAGseiHi6gyd23oBlVn62Gr/oWvarSJwps56q8UO3BM4tyZUqPqamEjRziChLdRS7ShvWY7V4YH99d85Q4CSDCzmSYnumVtEIv46hZAOzrveMIaFPsSzIta1XYKgM2mPEGgRVBw/uB803+6mJP+PLWNnILIcg6CoCbP/qATRzooGzGhe3NF+HTNSfCj284o26hmKa07CNQd0rS4y7PwxAjCoqeiQi9eqqEU9iezFvL+e0Vvxd0LKgSgQXp818HAe+lF3AFyH6qT8Olf2zlYrW7hk6QCoTUhVq7k5eYCXjQ4d7O+Wy5rAI8TTBzfKa+rpluPd2575fUXXcqiLeerdAmmN7eeYK9XWRQRdeBAd7kL94ZCtaOtejDDM+vpHolqVjlp9uh9/+fHXId//gHEB/bpAvUX/sXz31eIiwDpo3HSArvhZimKTxPk3Mp/Ohh+QcG4chVgAm9HlFMIFX/VSaVnyakPM1WtSQK8hFDt+a9qW10NeDklAgcC2yTp9oZVGYCP8Cj0A99VKL+NwG9YJGduDBaiqqCI1Eioft+N0O3G2VSIysrQ9aTmPa9umUecq988DzOSVIHUrcoH/DXaYvOGMvDX/WEj4zG1Iu+wi6ktw+a8IkgXEaaxE43PdIzV/jf9MdgWetUwuWOFdZkt4zr8H6oRLBi04663MtQ7m3ibSy/yVFbVtKpO2Uwo0WjmUt1xldpJkBhEHrttCaGsgnR6EGybo+mCTJauT6hKV3LNS9puHDC2TFcLGzRW0fg/YFyf23TOqR+0vj01Zb8boHy6UmV5OllzYeTYonz3RKWCNCUV+PtEsYlRHsyszND+C/rRgOl/8QAXc9j2107vgRTkMOI/k8TzQqJyc1MpVnazk7T7q868TL8N8Z9G/RUULZp+LwCmpQDScc7ygfRMi9evbTOoVCmF80e8hrq5OWEOOi887ZFnZpBwUeWI4apRvCC2Lb4ZO43SURveDJr9310oKz/q7xaahH+1Uh6LvYRlYJGA8pWqCT34kmQ3WAu/amSsobyP9aI9CUM/5Xrfs+l5JmCao/gqlHUcgexbzVr/c2e9EY+waNPNtK/H+SzCExV3D/AAOzJCzBnRnUKL7rCPvfX3vm2Xck9oq0vWDp95k2+KKReaQlXyJE1txVw/yS/GRC4xi883DYUMqRY8gNLWEW1vHmyQl6Un65eWKnnuMhWLQnFrUzU1kvD/+CmzvvXYg1fgCifYXQImJTagB13gBGaQsC2eIei+as7WVHcLUwPrskGISuaMarAyFVyTmpJOag0VX5cLjKEHP/DDsF07k2/71fjlopovPail0f4z1pXLC58OlaDkiqXzM7Q65IKAOqRKq+sUql908nXd2262dGQP9j6rMBuT03T5KN9PygUEDwKc5z10Tyd6ORuX62U9gsminbP3HJTbqX4tUyzqqyG8InWTY2PatzipSeHCn/LGrgbD0eq7XSeFcLk+jWAfty57izu61hKsm8n0nxuPv/0v+NpdU8ck+TlSDQtFbxvNxz5Rg8VyjnuDlq8jM3W9Opwwg3JGnZi/K9Or/IrpeEU5RLgW4eX6AkaoAb1PJy5Yh8snyfNwIsYzpDewDPWwRCAkPiC5pcbuxyRDAeycynopdH7YJwlQ4fVl4Fs+2D0ukLXkSo0wRXqbUn5vCGfmfHREtfTMR2f131EMArEYHqSgQK9d0cdN6HwnpN7ilOsNDeYeOCR6laEc5l2G4GsqG7pX0ka3Y2fqjatt9UHTtl8TCYWO+qOBb+XLAiDuo5iI87uiEBCvr9ahAcTuL5sxV/eOS+7D0x/ssEYGQ84nDzqjzbEHNj8Kgf5O/KBN4mRjruiowNRZsLhcFlPvF5ecD8wll89TUoH2EwDSl9hqJM/ZmcwySck47Q3rHXQd4KQBvRSPq/dw+3VzULxuc+m/ZVQ8MVAUVf7l7KnSQF4kE5b8dZNJYO93tjfDWSynlVUntEdQFuElLlXgpZRSVr/5hyyMSczIVT4NrrTE70rA4J+xoKKWILI3nsGP+yFtql9mn7mzTYHgD9pqXBy93S19QaIql4IKDRf663eRxNk3hPT3bMHV96OrbVcpHoJ6grps4LH8W/GOiDZ8RemZcbVNE1TLItpu6fNS99/zDioAoI0Gpckn1Pd6xqAEHLQwc/7fOEQLe9zDwGqifS9SYfSn/bbn3xyBLTbph1JP7yw/FoYhe/YbR/uFCARDlsn2Gsp7OI2JyIy7Riv/qO6JOQoQ0BA2VThmOwR9UO9Zr8GUedew+3+SbFz2w/lLtVyfTPMEMDVSxsNhIBfxroXW6urclvBUpTwncbHXXzq4jk/oFveEKIBH9Tiy34NsHgfIosGr+c/e3U4i1C+f3Nidz3BZzuFIw7c/txRvmNhYSBBinXXF+VC0svfnIPIck4v1vl8ZsftwbOrU7DOv/YS8t//OhLJP+wgDC/mXyMPATbZMAVToBRGiWoh9gp6++YwGS0UjFrFTwrZN6sc6QE4v04AlNqUxbHGP30LVKLd298aTV5Ig6mvzfUmt7zefz5U2U2GcjF8hkx09GHQ+V+UfQUnE3y1GHqUBfsO5WUJHZmjdXAsQcZD3baCCltiAH2aW/bfOis4CvRwT6N2yl68bi3qTMk4qplBMSvN6goDfwoLTPDHQQAcf/0PJEP87P4AWBhoe/zP7t/0jBMV90APD5B2m1gANC9xhciXz/AoqYChPDcyKDtJ6ChWyeYCBf7CRarnb9vrZuYFsyAaBYiZw8TKAVdPpQikoKMph4kDq7EOUomx9IP+wrKGpvmJanYxhGnLa5ljF0ZJu4KCLkCXbbmHrytRDsoeRepP7ZO3JmjTMdL5lH1U4Kviq12e0U3yiFar+wtM8R7U0THJesUMVuAbtv6pmCTgmY9MzbAGm9K15d8IzJ+Yzzb6vWevfcm/gr1U/8PC70rMhy2aONCg3XtYCKIF03XHXp5T4TQG+BFIgNvwIjxU38vJODDtQdmI2JSfambw0Cz7Uxyj8ql/Mu8p9HVJd8KG0rWaLqpZr/I2PQ6n+5ofYybmQOf8ninZRn4lVnzwP5h9+/Zlmklr28///niHreZMfCCpRU/FMCNEX0TTnPLYpZwTKcP8txNe9x5f5IAtBP7pHbmSQfXZ9Jyq5GCbtd67G2OZszI7NiJmq4f1n8Fqvhm+833/b7cKtj9n/bCHw2e0dWmHcZ2OH2sEpvoyrS/8gnzRA+C+K6XVBDj3a0wcsBmqLu9PA/w+iCG3B307tKOwIRIoWE2UQ2cYAHyvRkCVlZcKVQVZWSKKG8ne3nMSpMr4E40IykVgdQTsrfo34gL4vJZ2wKKJh3ORHjw5GcPmYnmJR+sfXznNxjCrtLkIY4POavT82FuXVN935f/bx/+9/v7zy/74bZ9CGPoKgBQf/+5tdOwbOmJuIGFi2jlBFQNTan7+ckDrqUnCcXyiDvaigcZEdnP7HRnlWayXxKqg7ttk+nEijoGUNi9vhSY5EZuWqxmb6qy+13ASDRMAAMQzuh0+A2A2D6FZyjf3YuiUxVzOvr7FLvAhP9eX2JWqz4PDN9RSdzWMnWbBh8HiTJC3/4E+QOq8xAQrQbhlb3sFjwgAAzgAAEVYSUb0EwAASUkqAAgAAAANAAABBAABAAAAfQAAAAEBBAABAAAALAEAAAIBAwADAAAAqgAAAA8BAgAGAAAAsAAAABABAgAJAAAAtgAAABIBAwABAAAAAQAAABoBBQABAAAAwAAAABsBBQABAAAAyAAAACgBAwABAAAAAgAAADEBAgANAAAA0AAAADIBAgAUAAAA3gAAABMCAwABAAAAAQAAAGmHBAABAAAA8gAAABwDAAAIAAgACABBcHBsZQBpUGhvbmUgNwAASAAAAAEAAABIAAAAAQAAAEdJTVAgMi4xMC4zMAAAMjAyMzowOToxNSAyMzowODoxMAAfAJqCBQABAAAAbAIAAJ2CBQABAAAAdAIAACKIAwABAAAAAgAAACeIAwABAAAAZAAAAACQBwAEAAAAMDIyMQOQAgAUAAAAfAIAAASQAgAUAAAAkAIAAAGRBwAEAAAAAQIDAAGSCgABAAAApAIAAAKSBQABAAAArAIAAAOSCgABAAAAtAIAAASSCgABAAAAvAIAAAeSAwABAAAABQAAAAmSAwABAAAAEAAAAAqSBQABAAAAxAIAABSSAwAEAAAAzAIAAJGSAgAEAAAANjQyAJKSAgAEAAAANjQyAACgBwAEAAAAMDEwMAGgAwABAAAAAQAAAAKgBAABAAAAwA8AAAOgBAABAAAA0AsAABeiAwABAAAAAgAAAAGjBwABAAAAAQAAAAKkAwABAAAAAAAAAAOkAwABAAAAAAAAAAWkAwABAAAAHAAAAAakAwABAAAAAAAAADKkBQAEAAAA1AIAADOkAgAGAAAA9AIAADSkAgAiAAAA+gIAAAAAAAABAAAADgAAAAkAAAAFAAAAMjAxOToxMDozMSAyMToyMTowMwAyMDE5OjEwOjMxIDIxOjIxOjAzALmrAAC+LAAAJ9YAAEV+AABIQwAAAWQAAAAAAAABAAAAjwEAAGQAAADfB+cFqQgyBd/VPwC1/w8A39U/ALX/DwAJAAAABQAAAAkAAAAFAAAAQXBwbGUAaVBob25lIDcgYmFjayBjYW1lcmEgMy45OW1tIGYvMS44AAkA/gAEAAEAAAABAAAAAAEEAAEAAABqAAAAAQEEAAEAAAAAAQAAAgEDAAMAAACOAwAAAwEDAAEAAAAGAAAABgEDAAEAAAAGAAAAFQEDAAEAAAADAAAAAQIEAAEAAACUAwAAAgIEAAEAAABfEAAAAAAAAAgACAAIAP/Y/+AAEEpGSUYAAQEAAAEAAQAA/9sAQwAIBgYHBgUIBwcHCQkICgwUDQwLCwwZEhMPFB0aHx4dGhwcICQuJyAiLCMcHCg3KSwwMTQ0NB8nOT04MjwuMzQy/9sAQwEJCQkMCwwYDQ0YMiEcITIyMjIyMjIyMjIyMjIyMjIyMjIyMjIyMjIyMjIyMjIyMjIyMjIyMjIyMjIyMjIyMjIy/8AAEQgBAABqAwEiAAIRAQMRAf/EAB8AAAEFAQEBAQEBAAAAAAAAAAABAgMEBQYHCAkKC//EALUQAAIBAwMCBAMFBQQEAAABfQECAwAEEQUSITFBBhNRYQcicRQygZGhCCNCscEVUtHwJDNicoIJChYXGBkaJSYnKCkqNDU2Nzg5OkNERUZHSElKU1RVVldYWVpjZGVmZ2hpanN0dXZ3eHl6g4SFhoeIiYqSk5SVlpeYmZqio6Slpqeoqaqys7S1tre4ubrCw8TFxsfIycrS09TV1tfY2drh4uPk5ebn6Onq8fLz9PX29/j5+v/EAB8BAAMBAQEBAQEBAQEAAAAAAAABAgMEBQYHCAkKC//EALURAAIBAgQEAwQHBQQEAAECdwABAgMRBAUhMQYSQVEHYXETIjKBCBRCkaGxwQkjM1LwFWJy0QoWJDThJfEXGBkaJicoKSo1Njc4OTpDREVGR0hJSlNUVVZXWFlaY2RlZmdoaWpzdHV2d3h5eoKDhIWGh4iJipKTlJWWl5iZmqKjpKWmp6ipqrKztLW2t7i5usLDxMXGx8jJytLT1NXW19jZ2uLj5OXm5+jp6vLz9PX29/j5+v/aAAwDAQACEQMRAD8A+f6KKKACiiigAooooAKKKKACiiigAqezs7jUL2GztImmuJ3Ecca9WY8ACoK92+A3hfQdWsZ9TvrRZdTsrxXgk8xgUwAQcA4PNAHTfCH4YR+H4bPxDfreW+sFJI5LaXAVQSR0xnoAetew1GnXFS1F7gfANFFFWAUUUUAFFFFABRRRQAUUVfsNLnvCj+U3kEkFwRQBf8OeG5NcuXRpDAqIHDNHkNzXvfgGGKz8S20VvGkMbK4KRqFB+UnoPpXD6CDHaxwbtywqqqduCBjofyrufBjf8VbY/Vv/AEA0nsB7Ag71LTQKWkkB8A0UUVQBRRRQAUUUUAFFFPihknfbFGznqQozQARRtNMkS43OwUZ967XS7WSysFgdlYk5OB0596bp2jR6ajFn85n2sGKgbcVeJ6HvTQG3oz/fGc/d759a7fwaceLbD/eb/wBBNcJo7EM34f56V23hB8eK9OP/AE1x+hpMD20UUnelqQPgGiiiqAKKKKACiiigArtvD+nRWlrFex7vMmiwckEdfT8KxtB0Zrt0u5QjWysVZDnJOP8A64rrAqRRrHGoVQMAAU0gGyEHjgVHn0pWOajyKYjY0c5kYA54HQ+9dn4VYr4p03/ruoridHl2XGSeAB3966vwxfJd+I9MlQFf9LRSD/vCpYz30kIpJOAOSa5uTxrp8croFZtrEZHeq/ibWGJ/s23J8xv9aw7D0+prnhZrgfKtcVbEcrtE7cPhfaR5mfJ9FFFdpxBRRRQAV3vhH4e3eqJPd6gtzYiDZJCJIDiUcnv9B+dcjpOkXus3LQWUYd0Xe2WCgDIGefrX0GdeaDRUt5Nh8uIKxCnsMVMpJBY86llwqxAABOwHGarlqa75Zj6nNNJz+NadBAx5ppOBQTj8KaT6cUAaGmsVnYnONvHHvWj4Tu5I54po8eYlyrJnpnIxWRYfLKeOq+mO9WfCUm6VfT7SB+tRLZlRV2j2G2R2zK2Wlc7mY9San8uX0qeNAij6U7ePWvDb1Po4xSVkfH1FFFe6fNhWho2kT61qUFlCdhlbaJGUlQcZ7VVs4knvYIZX2RvIqs2cbQTgmvpnwbc+DfBPhuaxPiG2miedpMlwz5wAQAvbipk7K40rmD4S0UeG9Pjhj02G5vQhjkuEjOWBbOP5flT9X8URxGWy+yK8jqyvswqxnHTPc1u6r8SdDbSbr+xElkmxsSZ4yFDHuM9cV5WZd8oYklmySTn0NZU6fM+aZTlZWRQJ6+maUnjNRE8ml3A10mYpPX0pM+nSkzxyfz/+vQTnnr+GaALdi22ccjPTj6itiys4tM1SKGJoiPMRj5bbgDnufWqXh6O2mvn+1PiJImfBPcDiq+hxXSqL2ckrNcEIx77Tipew4S96x7vngAelOEeR1qNPuCrC3rqoUKvAx0rwkr7n0jbWx8dUUV7H8Mfh7FPZ23iG8e3ubeeN1+zSwhtp3EA8/wC7XunzZg2PwyvbXwxc63qqosTW6T2hjfdnOGww7cGsOOEyMEUZZjgAd6958SxLH8OdQjQBURnRVAwFAwAAO1eMWaeVGZyPm+7GPfufwH86inLmVxyVi4VEMSW0ZykY6/3j3P5/pUEkpjmQD+6e1Sp15P54qrcEG7XGPu9q1JGbh14pASTTc89f1pR160gHknHH8qaTz2oJ47fpTcjru/WgCxDIUOQSMf59a0o5zJNCnAjjICKvQDOao6fbPfXKwRsu888t2H41ZjAWVAOxoBNXse12cm+0Rs56/wA6mzVXTyDZR46c/wA6s14ct2fRxfuo+VNJt5pL2GVIyUR/mbsK+hfhW802h6grOxjW4QKpOQvBzivIoLOG0QpAm0E5IyTzXs3whTPh3Uj/ANPQ/wDQRXtS2PnkXvE4A+HuoLj7zSHP/AhXiWQSo6qg2jv9a9s8WsI/hzc5IyWP6yKK8RACrWdD4Rz+ImztQY4H4Cqk7f6Uo/2amMhK8fl/+qq05IvEx121sQAPWnZpg6U4njsKAAmjPHf/AD+NJ+dGfTH4/wD66ALlheyWVwJo+XAIG7pzx61ai5cH3zWWh5HI/P8A+vWnEcUgSV7nt3hyzkvoIoo/cs3oK7RdAsQoBjJIHJz1ql4N082WgwyOMSTgP9ARwK6GuenQileS1Z11cTJu0XZI+QHHJr2L4RDHhTUWx/y9n/0Ba8iu7aa0neG4jaOReqkV7B8KV2+Br+Tpm7f9I0raWxyx3DxkCfh2x7Fs/wDkVa8Vl68V7X404+G6+5X/ANGivEZWJbAqKPwlT+IF+5j0qldPi8QDHQdKtiqFwR/aOGzjgVsQXB1oyAaQYozzQAvUUoz+H1popRx/9egB6klh1xn0q+pwRVS2WNp085mSLI3sBkgd8CukaTw7c25jCT2Ji589m8zeO+4ZAHrxSGj6R0aRRoFg7MAPs6ck47CvJNa8d6/a69qNvBqu2GK6kSNQkZwoYgDp6V594t+LGp3vhlvCsaWM1m0Mam6jDeZ8pB/vYzx6V5cXYkksST1OaAPd7e/tvFOl58Q2r20kbLGuqImI2Y9A3of0rvfB2lvoPg+9sZZY5HM7yKynO5CqgH9K4fxXrMuq+AnBgitoRdQ+XbxD5Y1KuQPc4ANa/gKadvBFvE6OwMkoWUt0GcYH+Fc81yK62NILmdjQ8bK8vw9t0jRnOFYhRnChySfpgV4e/wB817nrkpHhq+WR8hLZ1QdMAg14Ux+c896MPPmiVWpuD16jlPSs+bnUDjjntV8VnyHN+frXSYF2jqaSg9KBDh/OnL7flTRTjjFAwOAD0/L/AOtWPqus+YPKtZGCEFZMr1/zzVnUbz7PENvJLYIDYrI+3p/z7r+f/wBakMo0Ve+3p/z7r+f/ANaqryBnZtoGTnFAH0dZ+FDqeiyi8lVrS4v1uIjCeJIwhAA7qBnH4V00VtDp9pHBBGsccYwiKOBT1u2uLxjhUhRNqRqMKoHpTiDLKD/CK8avXdR+R7OHoKnHXcyfE8ZTwpfvgA+Qf5V4S33j9a958bMIvB+oH/pko/MivBTya7cH8LOLG/GvQepqg3/H8frV9apRxvLqBVFLHrgV2HEy0Kmt7c3DMOcKMnHH61F0NbGi3kdnBfb4kfzU2At1XryPemJmQuMVUvr9LWJgjL5wwQhB9asTOUhdh1Ckg1yk08k775GLNjGaQ0E0zXEzSuAGY5OOlR0UUDCiiigD6t0wliwySigBSRgkVrKu3HrUdpbmJTJJzI3X0HtVXVNTh0+HfKSWPCRryzn0FfP2cnZH0SairyM3x+5Hg6/x0xGP/HlrwsZr2zx47t4InaRPLkby9yZ+6cjIrxYda9XBq0H6nk413mvQVelNtY2Vby46DKxA+5OT+g/WpAOKrpM7HyeAgctj3rrOIlxVy0WDbvnlVFB/ibGapSOscbOxAVRkmud1G/Ny7RoQYgQVOMHpQA/VL8zzmOMFVjZlyGzuFZtFFAwooooAKKKKAPqmTXlstEtJp/3l3PGpWJOrsRnAFN0rS5muTqeqEPeMPkT+GFfQe/vUeg6E0OzUNQKyXZQCNQcrCvYL/jW+Blq8WpKMLxh82e3TjKpaVTbov8zmPiOceFJx6yoP1rxpY2KO4XKrjcfTNexfElseGWHrcL/WvLdNguboSWcBASYrvJ6AA9T3716GDV6fzPOxz/efIz8/Kau+GPDd74i1CeKzTiGJppGI4AH9TVrUtFWwjhdJhJuZ43U8EMrEZx6VP4f+JK+B9OvbGDT4btrzId/M2smARg8Hjn+ddbVnZnGnfY5PWruC2hktCjGSRMhh06//AFq5enSOZJGYnqc02kUFFFFABRRRQAUUUUAfYNuu22iHogH6U8EBiT0FKoxGo9AKa3COfQV8+1qfSdDjviRJv8PpjvOpx+BrgdCs728uEttOjkkvHf5QnQDjk16hqmgy+LbtdKt38tImWSaUjIUY4A966+20nRvh54ZvL23ti/2eEyzPx5kmB6n+VevhE1TPDxbUqrseW+OPB7+D/h5Nqs5F1qryoHlLfLFuPIA7n3rwGWRppXkf7zksceprt/iL8RLzxhrd2bO7votFl8spZSyfKGVQCdoOOuTXC11N3OZKwUUUUhhRRRQAUUUUAFFFFAH2NUF35xgaG1j825lBWJPU4/lVhiscbO5AVRkk1p+GtOd2bVbgENKNsEZH3E9fqf8ACvHw9H2k9dj2sTX9nDTdiaeLPwd4difV763hlbLSzTSBQ8p5IBP5D6V8tfEP4gXfjrVYLmW3jtRbxGELDISHG4nJz9a928Z+OPhnql1Jo3icvcPYTspjMcgCuODypGa5T7f8Bf8AoH/pP/8AFV69rHingFFe/wD2/wCAv/QP/Sf/AOKo+3/AX/oH/pP/APFUwPAKK9/+3/AX/oH/AKT/APxVH2/4C/8AQP8A0n/+KoA8Aor3/wC3/AX/AKB/6T//ABVH2/4C/wDQP/Sf/wCKoA8Aor3/AO3/AAF/6B/6T/8AxVH2/wCAv/QP/Sf/AOKoA8Aor3/7f8Bf+gf+k/8A8VXnOpT+Bm1S7NlbsLUzOYR+84TcdvU+mKAPomK3Os6mLMMFs7fD3TZ+96J/U+31rjvi/wDFMaOl54X0xLmC+CRPHfW84UKDg4456cVn/EHx3J4V8M2+jaZZxy/2pbyi6ubgncSRgkAHryTz7V8/s7O25mLH1JzWVKmqceU0q1XVlzMkurme9upbq5meaeVi8kkjZZmPUk9zUVFFamYUUUUAFFFFABRRRQAUUUUAFFFFAH//2QBYTVAgWA0AADw/eHBhY2tldCBiZWdpbj0i77u/IiBpZD0iVzVNME1wQ2VoaUh6cmVTek5UY3prYzlkIj8+IDx4OnhtcG1ldGEgeG1sbnM6eD0iYWRvYmU6bnM6bWV0YS8iIHg6eG1wdGs9IlhNUCBDb3JlIDQuNC4wLUV4aXYyIj4gPHJkZjpSREYgeG1sbnM6cmRmPSJodHRwOi8vd3d3LnczLm9yZy8xOTk5LzAyLzIyLXJkZi1zeW50YXgtbnMjIj4gPHJkZjpEZXNjcmlwdGlvbiByZGY6YWJvdXQ9IiIgeG1sbnM6eG1wTU09Imh0dHA6Ly9ucy5hZG9iZS5jb20veGFwLzEuMC9tbS8iIHhtbG5zOnN0RXZ0PSJodHRwOi8vbnMuYWRvYmUuY29tL3hhcC8xLjAvc1R5cGUvUmVzb3VyY2VFdmVudCMiIHhtbG5zOkdJTVA9Imh0dHA6Ly93d3cuZ2ltcC5vcmcveG1wLyIgeG1sbnM6ZGM9Imh0dHA6Ly9wdXJsLm9yZy9kYy9lbGVtZW50cy8xLjEvIiB4bWxuczp0aWZmPSJodHRwOi8vbnMuYWRvYmUuY29tL3RpZmYvMS4wLyIgeG1sbnM6eG1wPSJodHRwOi8vbnMuYWRvYmUuY29tL3hhcC8xLjAvIiB4bXBNTTpEb2N1bWVudElEPSJnaW1wOmRvY2lkOmdpbXA6ZjM2ZDNlMjktMDQ3Yy00MzQ0LTljNzUtMzZiYmE5MmFlMGVlIiB4bXBNTTpJbnN0YW5jZUlEPSJ4bXAuaWlkOjc5ZWI3YTRhLTUzNTMtNGQ1Yy1hZGYzLWVjMGI2ZDZhMWYxNSIgeG1wTU06T3JpZ2luYWxEb2N1bWVudElEPSJ4bXAuZGlkOjNiMzRlNzM1LTk3NjEtNGU4MC04NTM4LTllZjE3MDAwMTVmYyIgR0lNUDpBUEk9IjIuMCIgR0lNUDpQbGF0Zm9ybT0iTGludXgiIEdJTVA6VGltZVN0YW1wPSIxNjk0Nzg2ODkyNzk3NDcyIiBHSU1QOlZlcnNpb249IjIuMTAuMzAiIGRjOkZvcm1hdD0iaW1hZ2Uvd2VicCIgdGlmZjpPcmllbnRhdGlvbj0iMSIgeG1wOkNyZWF0b3JUb29sPSJHSU1QIDIuMTAiPiA8eG1wTU06SGlzdG9yeT4gPHJkZjpTZXE+IDxyZGY6bGkgc3RFdnQ6YWN0aW9uPSJzYXZlZCIgc3RFdnQ6Y2hhbmdlZD0iLyIgc3RFdnQ6aW5zdGFuY2VJRD0ieG1wLmlpZDo3NjhlOGFmOC03NGE0LTQwOTItYWE3MS1mMTJiNTY0ZjEzNTAiIHN0RXZ0OnNvZnR3YXJlQWdlbnQ9IkdpbXAgMi4xMCAoTGludXgpIiBzdEV2dDp3aGVuPSIyMDIzLTA5LTE1VDIzOjA0OjU4KzA5OjAwIi8+IDxyZGY6bGkgc3RFdnQ6YWN0aW9uPSJzYXZlZCIgc3RFdnQ6Y2hhbmdlZD0iLyIgc3RFdnQ6aW5zdGFuY2VJRD0ieG1wLmlpZDphYjRjZDQ3YS1lYjQ5LTQzZjUtOTkwNS1lYWI2OGRkMjhhZGEiIHN0RXZ0OnNvZnR3YXJlQWdlbnQ9IkdpbXAgMi4xMCAoTGludXgpIiBzdEV2dDp3aGVuPSIyMDIzLTA5LTE1VDIzOjA4OjEyKzA5OjAwIi8+IDwvcmRmOlNlcT4gPC94bXBNTTpIaXN0b3J5PiA8L3JkZjpEZXNjcmlwdGlvbj4gPC9yZGY6UkRGPiA8L3g6eG1wbWV0YT4gICAgICAgICAgICAgICAgICAgICAgICAgICAgICAgICAgICAgICAgICAgICAgICAgICAgICAgICAgICAgICAgICAgICAgICAgICAgICAgICAgICAgICAgICAgICAgICAgICAgICAgICAgICAgICAgICAgICAgICAgICAgICAgICAgICAgICAgICAgICAgICAgICAgICAgICAgICAgICAgICAgICAgICAgICAgICAgICAgICAgICAgICAgICAgICAgICAgICAgICAgICAgICAgICAgICAgICAgICAgICAgICAgICAgICAgICAgICAgICAgICAgICAgICAgICAgICAgICAgICAgICAgICAgICAgICAgICAgICAgICAgICAgICAgICAgICAgICAgICAgICAgICAgICAgICAgICAgICAgICAgICAgICAgICAgICAgICAgICAgICAgICAgICAgICAgICAgICAgICAgICAgICAgICAgICAgICAgICAgICAgICAgICAgICAgICAgICAgICAgICAgICAgICAgICAgICAgICAgICAgICAgICAgICAgICAgICAgICAgICAgICAgICAgICAgICAgICAgICAgICAgICAgICAgICAgICAgICAgICAgICAgICAgICAgICAgICAgICAgICAgICAgICAgICAgICAgICAgICAgICAgICAgICAgICAgICAgICAgICAgICAgICAgICAgICAgICAgICAgICAgICAgICAgICAgICAgICAgICAgICAgICAgICAgICAgICAgICAgICAgICAgICAgICAgICAgICAgICAgICAgICAgICAgICAgICAgICAgICAgICAgICAgICAgICAgICAgICAgICAgICAgICAgICAgICAgICAgICAgICAgICAgICAgICAgICAgICAgICAgICAgICAgICAgICAgICAgICAgICAgICAgICAgICAgICAgICAgICAgICAgICAgICAgICAgICAgICAgICAgICAgICAgICAgICAgICAgICAgICAgICAgICAgICAgICAgICAgICAgICAgICAgICAgICAgICAgICAgICAgICAgICAgICAgICAgICAgICAgICAgICAgICAgICAgICAgICAgICAgICAgICAgICAgICAgICAgICAgICAgICAgICAgICAgICAgICAgICAgICAgICAgICAgICAgICAgICAgICAgICAgICAgICAgICAgICAgICAgICAgICAgICAgICAgICAgICAgICAgICAgICAgICAgICAgICAgICAgICAgICAgICAgICAgICAgICAgICAgICAgICAgICAgICAgICAgICAgICAgICAgICAgICAgICAgICAgICAgICAgICAgICAgICAgICAgICAgICAgICAgICAgICAgICAgICAgICAgICAgICAgICAgICAgICAgICAgICAgICAgICAgICAgICAgICAgICAgICAgICAgICAgICAgICAgICAgICAgICAgICAgICAgICAgICAgICAgICAgICAgICAgICAgICAgICAgICAgICAgICAgICAgICAgICAgICAgICAgICAgICAgICAgICAgICAgICAgICAgICAgICAgICAgICAgICAgICAgICAgICAgICAgICAgICAgICAgICAgICAgICAgICAgICAgICAgICAgICAgICAgICAgICAgICAgICAgICAgICAgICAgICAgICAgICAgICAgICAgICAgICAgICAgICAgICAgICAgICAgICAgICAgICAgICAgICAgICAgICAgICAgICAgICAgICAgICAgICAgICAgICAgICAgICAgICAgICAgICAgICAgICAgICAgICAgICAgICAgICAgICAgICAgICAgICAgICAgICAgICAgICAgICAgICAgICAgICAgICAgICAgICAgICAgICAgICAgICAgICAgICAgICAgICAgICAgICAgICAgICAgICAgICAgICAgICAgICAgICAgICAgICAgICAgICAgICAgICAgICAgICAgICAgICAgICAgICAgICAgICAgICAgICAgICAgICAgICAgICAgICAgICAgICAgICAgICAgICAgICAgICAgICAgICAgICAgICAgICAgICAgICAgICAgICAgICAgICAgICAgICAgICAgICAgICAgICAgICAgICAgICAgICAgICAgICAgICAgICAgICAgICAgICAgICAgICAgICAgICAgICAgICAgICAgICAgICAgICAgICAgICAgICAgICAgICAgICAgICAgICAgICAgICAgICAgICAgICAgICAgICAgICAgICAgICAgICAgICAgICAgICAgICAgICAgICAgICAgICAgICAgICAgICAgICAgICAgICAgICAgICAgICAgICAgICAgICAgICAgICAgICAgICAgICAgICAgICAgICAgICAgICAgICAgICAgICAgICAgICAgICAgICAgICAgICAgICAgICAgICAgICAgICAgICAgICAgICAgICAgICAgICAgICAgICAgICAgICAgICAgICAgICAgICAgICAgICAgICAgICAgICAgICAgICAgICAgICAgICAgICAgICAgICAgICAgICAgICAgICAgICAgICAgICAgICAgICAgICAgICAgICAgICAgICAgICAgICAgICAgICAgICAgICAgICAgICA8P3hwYWNrZXQgZW5kPSJ3Ij8+;" parent="1" vertex="1">
                    <mxGeometry x="-1420" y="410" width="80" height="210" as="geometry"/>
                </mxCell>
                <mxCell id="36" value="" style="shape=image;verticalLabelPosition=bottom;labelBackgroundColor=default;verticalAlign=top;imageAspect=0;image=data:image/webp,UklGRkYtAABXRUJQVlA4WAoAAAA8AAAAfAAAKwEASUNDUKACAAAAAAKgbGNtcwQwAABtbnRyUkdCIFhZWiAH5wAJAA8ADgADAAZhY3NwQVBQTAAAAAAAAAAAAAAAAAAAAAAAAAAAAAAAAAAA9tYAAQAAAADTLWxjbXMAAAAAAAAAAAAAAAAAAAAAAAAAAAAAAAAAAAAAAAAAAAAAAAAAAAAAAAAAAAAAAA1kZXNjAAABIAAAAEBjcHJ0AAABYAAAADZ3dHB0AAABmAAAABRjaGFkAAABrAAAACxyWFlaAAAB2AAAABRiWFlaAAAB7AAAABRnWFlaAAACAAAAABRyVFJDAAACFAAAACBnVFJDAAACFAAAACBiVFJDAAACFAAAACBjaHJtAAACNAAAACRkbW5kAAACWAAAACRkbWRkAAACfAAAACRtbHVjAAAAAAAAAAEAAAAMZW5VUwAAACQAAAAcAEcASQBNAFAAIABiAHUAaQBsAHQALQBpAG4AIABzAFIARwBCbWx1YwAAAAAAAAABAAAADGVuVVMAAAAaAAAAHABQAHUAYgBsAGkAYwAgAEQAbwBtAGEAaQBuAABYWVogAAAAAAAA9tYAAQAAAADTLXNmMzIAAAAAAAEMQgAABd7///MlAAAHkwAA/ZD///uh///9ogAAA9wAAMBuWFlaIAAAAAAAAG+gAAA49QAAA5BYWVogAAAAAAAAJJ8AAA+EAAC2xFhZWiAAAAAAAABilwAAt4cAABjZcGFyYQAAAAAAAwAAAAJmZgAA8qcAAA1ZAAAT0AAACltjaHJtAAAAAAADAAAAAKPXAABUfAAATM0AAJmaAAAmZwAAD1xtbHVjAAAAAAAAAAEAAAAMZW5VUwAAAAgAAAAcAEcASQBNAFBtbHVjAAAAAAAAAAEAAAAMZW5VUwAAAAgAAAAcAHMAUgBHAEJWUDhMSRAAAC98wEoQakDatpGS/ccuig7+g4iYAP6KeszKjMglVJRGCV0OuVRURORmL6vV+P+e7VJ+//s5oQBKwG0DeCRDDXgogfZPet/run/+Ly+ipIUjj99aeAeXg75msHSx7pSBSpskaXMT1xxcRuXQQIYyVpIU88ijCJL5EZvIsQQKOAU8ZNzOs46kmJVnaODotwPqyGGzZu4GdtYx8xyFXEk6oRoy3OSgootyc9SUgM+gkc+SoYSc0zuzUR63BTAoCkCdFh5iC8gz6wgOdDx+7elDUm3bstWstc85t6BogQC0VF1cREQcZMRRDOAmHmjXtq3aisiWwPSPCMgAvt3dreqcfdZec8y5YEW2WoEpXxjABErw0uAmEYMSTCCg6StnAujW/+fKqWb+V97t4r333ts1eCfvvfd7ZXbldc3M3FXrQhEUsaXQC4c2qEElUAWFEJMSEhOSbj0c6plQLRDfDJVBSqiYFlALFOBboBZC1UCqkHhjenAtUAfEhEpVEV2QUcPWQK4iaIiUUPFtgVI4yqiBkMy89yJeqAqeObIAACwbK0l1Rrt7tm3jy7Zt27Zt27Z9tm3bV6ZNOwkCAJBt9JXz3ex2tm3btm3btm0VZ822jbop4v5PgFNH65OapcLwFzNU3MhAP2K2/5jhRg9IHi/rUkMFDTKAebRMxGBXNEM48KpQwjxogMnAj1WFwshFwjAbhpVVOZhpExikFZwwZSg1DMQqUJCSAbwqLRXeAmGrkVihWai8NmWxggn0XLRpk1hZlpuZDa3myMfWf9bxbCOMZmkp4VoRlTTKmiMbzAiiA4VUxApDIn6IKZpbMhgCk9vrZVoY3PB0c0+srA9D0d2uEiss1OzaKssYRKqz34pFO+deEivLTsNPY8gDOgxfRCReqHaDURoVVnb/WEU3OiSVTAq3FaH6jcaUw4x5LFs+oxEvcy8jT2NNwVDAXBFD7CDTpkSr8rKNC7EK6zFlK8ugMa+9CksHb5WtzNBILSWE3ETKGvu6Q+9Acnsa15qzXo7yoIaWl3lZ5dmjxGsd4tK419mFkewhM4wWMk9N07DCKDDclpjV6RWebu5p3GvLZhnq6n6Th6w6SIGqSP0uqQ5IB05Rm/rdhhPSuVyB1tNfF6KbxAslNxilnAsp3LK//CYp58wJFz2rIbpSUZj1M309EYQNoZsVbP1YVoI8hVw7qITJldSywowPioKuGatt6LQCrxcsK0yJWHXeikVHzDB7of1aYpdFc1FiV14Y3OJJSbTMMpPGHpJo4UbPqqSWFdbIz4dSoWXVCeepSKysz7hoq0zriPeYg1pFWQs77ts0Sqwq0GMkNQ2pCqQDW2pT0zSckF7LFXF8SGLhAxOvyuWVHqWcCyk7yzoc3ZdyzpywS4/OWSqKNy6UBHLMRpHHVVF5n0JsQQU3i9etBqXwsjoMrVYNxrMeukTMzkd5i5hhOtF5LTHEgc5FGWK3QjwmDIGh9ecXY4dhpnXS3ZWy6jGGGf1YTM5Wqs0YrmzwcuZ1tY9l8Xo88KhOgzOXAXcmZlrRqTblUki9rcK7VZtzJoUmzXmq2bCQHWYuBhpeZrk50yTRsvPHKqrVSC0p7FaEUg2Hg0KgtymYVdRaIWILrlmI3QOZ2ZWY9TLL6lESrQorkhqppoM4R4VPm9TQOs+PW9V1CAtQub3ECy03PY3qe/x2MbsxoWloYbWaVEmq8fGaMU/E1J5QrY+XVeWkiN3zHyL2+IGIVZb9SsTWLxWxar8TC0fMfnIIM7Pixr3ECxV/T5N4fWHjDUkMx+hG7x7uKlp3fNolhkNeFcpNoMmZ1lNuvOswd1kdMWiTWI7BjvuOiN3hGBnA623fU9lqpCDRYtrrSW9UO2jWU9uUFaIA4KjmtOw3E86UUuv2k4G6WfCjj7dJAXr0QJ5f+LNTIwRmfaxOKBN4bs0ct3hDqxDT4HDMBaqK1Zj1idg/qaLbzIG0Uiu7XLI/mqUdN3XN6XvdXBzUUu5UGxepWJIE621YfKE6WXe0NMoKEiMo6/GMJNvaNu5M6XspldsohpZlx2GdYEa2fIZUFKapzUtLXlDxry5gQeDY9SHJ1CDu2LtRJ5/4YK8o1O17/hLFauvabUAYpqDyf62aorB990aNPPouvV4OIyUECj71NhfHhDd/xTSKaaj4dwvRNKybjuoDg7+wm3sK83N/kMBuSgyvCGlDTiB/XvSnhcq6G2de1MbDUHS3qxSI3jV/wD0RzbI/zX/imIaL/7Sostmcofd1cdI2W2U1CnV424q/bkUt6S6JDwbQAjGgtLUiJLwZoyYe8pace0lBVkvMfAbDAIDHXZynWHX35R+cB/CsxoTImrh87A7UhGXncoXZxwjBLJRy9eeqsXSPcS7t5SgxlHac/Me5ufWTXGKb83UCsUiqBdOxcNMUht7t3beiVvqumvLs1TFE8z4MEoOw89Q/zrfO3WCi8e69K/2qA2t5R4/SqISBGEj0bqTYdOWMB68OCC751s50yT1XfiIKf5f1eFgqD5jSlTVYB3b/Wkf105NKDgMxoOhT2w4gXPKtjepiqfcXEIVFNqU3JYeX/WlGDuDhAKvUVGVoFOzsRos+dlPyqcyvF9yAlNuTimxh2bw/eDj4rdHkHBpGWOabCWIXYYpVqX+1qhqUR9QJNp7HEx+Yf+D/HEjOOc/O8yD2IslNpNrMj8QSkWoc184/OYMB7otutOV9claQrzzVW3Pez6+djY4pbOWYfbek/5pp+jFXvmIOBoQCwI0mtqW4l95HYWKAbVh8kvH4l9/owC848/NftcvZwbEXSOACnleNYgdpc5uvCMM3d+BzU2ZqwdcJjOCO5g0AAtwE4M4Pa8gcHjUGqY1sgIy7r1Ap41YAoABR+8pNqqrlfx0b0NutnHGPIDq9x5Po2x/elHVOb192jcv03d9nk8dtFODGndwBsK3coKpq3vexgxBsejmkPsfh1yCVh0c2ZQPADcOQSi+qyWms9NmMuxcggjkw+QZl284Dy/I1qqqc4d99oClCNFjpXaNopiunn+a9GdcMeWdCeXAtXiO1inzCZM/0lYRyYd+hn3K14/YDW5bl60xTnY3Du4Zpmhmvu9okXakkeMWskxeSUlxJkLqWhwEAf7hhwb5c4SErduuWX3XErM+UyKuizZZtuwAxgLiS4k49oxt7mQfSNX/kbWN2HCGaqfdn/rGuWNc0tVm+OLxrqSVCsVb8FdLX60ZkKfUNxpR7KOaWtJqYUkKIJb+6A2xsAOCPm2/fe3XECCv/NxFDOf/tUOfpoK/YEyJujCI8kDTt5aT0RzcjxPMTOtB6Tv24+XbAG2zjLxnBqPBuqgxqjmjG6JbZtBHJyPumB5Iw4rS/H+KWtVszUxYOuQQKnjuIHiiAP5iqmvdt7D24CAteTESf/55xeWV27+sBqZdLZB10KpBAigw43Z8HUJ2Q+XIKEDSpF10M7Ta3Yf54cuxKwvk/imgSfZkc6MLrRRBu217OUZVjlngYXoygqV2436LPkCkhpj1bDK7LKvVupdWe5o4M24qNodyfE9bN23KVLS23Oc2v56ztZalITRtPqbzasswD0ecNuiv9Mg4ewIEzJGYS056O5z6dJJqqKzk/uAH35FB5ZEZroZ+MDWMuUy0nmNBqtjENzOUeSqDArw6tqU1MEXgg+gyFmQrOhGgiGbYUBq2afQ4IOTnUhmU0g5DzcVhw4SPQxje1vwdjbs0kNTbVmakgAAfOUIilSO0iimhm372BOQQgaluxrmFVN5F0+NWHNaH19NoU24oOtTwcU2umIpm70hKBB6JPU9y6gqZqxt9Yxix8HCBmX75CdDVXWt70/rSPGKG7JjWzifaV+yCRYDxeU2uGLJm70pJHLmlEtvRfg+AhOHpaYGHbik0pN2H5jPPvgLBrbVLkCLXOw6gA05jr8RGCf5tav8iShSstZeQeMRVTn5JvAAVa159uWHu3ecqVfeUFglAvpnBDkRdEbft/80DOe+qvLxTcXQFK8PuxJFk609JG7lGilPaEjBG8YvJJS3b09oNrQCOjnb2cS2rjKQnJHOGhhDdk1USUVgY0fwCAmdq+yLJVbWqqIAAHTpMupj1entb31ZWUSlXN7dt3/uZFahVz2RTxRXeAGx/BLB1zQ1UTMagNsUIBQtaNW4qmW5uWeqKbGoSMJ6N/UUtODKoNr0/jXFKKSkieRenBIIgtnXD+0hHUhVnukgkXrQVR1PxSm556v5sZss35zpQQGpKyp/d46fVjhKekyBFvMBIOAtjS8WcU6zmCeiZ3fnAm5CmmFDG/ONNS7ndTU0Kz3kgFwcunXfZjCAJE/UpqojrGiHpQlaH1Fd61jMg6wlNVRcmZkgyeQDch0pJkbdm2jRhUahpFDtJmmYe0bNwZ0fQUxUAhhPrMrPkjdtVqI1dSEnhyo0+RiGocd52CWORs00Q3eKcHtXzsGdP0iCnSUhywava1ue2TUm1cl5QoeHL2H/2e8WpacAZ9N6TISkVuB4WHtWzsWZ8sm9n2/r9qak1TakxdKQkgcBYMpoU2ABDCfD5JcYG8ir08sP9/iUFNmOF9NrWmyzUWtWlpwLNfSY1inzB1ZtRLCY5gPTGgC9OCTlMrmlJjJCYVYw+uX9EnQepaHtqjPjGwG3GCzjdyTph1y86rQy/1DLWlzIO7xLCeGNiDWIE3oj4/et92T+ehllLfYEy5h/f/rzP93AJzobW9nHNsiLgx2uHRKCv6Q5BOj+FR3wXvWD6fFX0xe3fWO4nj5Rl/7oFd5DpYut5j0Ebf7zjz/5vYt+5d8xiS2rhM+nUex0bvPzj930ccCYAIb5eiGqBwj8TKWAHnnLdJUZu++3ssUgdNRCs6VHpE8UNAOJYIs9+vc17lZOwyp1XS16zKnVbZ9HrQ4bz0Y4uWM/voGmbHGFYndu+9ndjAvNx5lWVvcWIrKpRObGI+RHglLbqW00q9E/d2Vin1d/qc89p0ofUZzkuH/MSJFbPPr5ktXe/ETPdXnNgAZXdiU/s7sUP2c2JbVWjP5LUwM6n1zuv2hnu10ypabMSdVpkAvn91Xpo0lM4M7bOG2OgYEHVeBbUas8yJDWxOd2JT+zuxyQ61nNjEfIuE2aJrOTGzem9nlZK+ZvW/O69NF1qOcF46BCGdWQftczA7ZokTO+p1Tmxwbie2rEOHE5v8lhPb6lMzfCPMdsa2Oq/bGzTO/+a0ihY/wWmViX//1XnpPsZOZ2bRnj4vhBl04Uad2ImVhzmxAYI7san9ndhkhyud2AT0sbQw+/21nJilGucwZ5WSkJmLOa9Nb/wi56VDEJYz+9I5mB2zxImZ6r2d2OAWTmzZHk5sxdCJbWV6IyPMdn6J87r9Pz/gtIoWP8FplYl/mx3OS/cx9nJmD5/eL4TZ0vlO7JRzOrHBO53Y1P5ObHI/JzZx8X/xSlp0LaeVegfez1ml1N/pc85r0xujCOelQ77pzDro/IlYOWaJ8yo73NqJDczlTmxqfye2YuTEXrnPuZj9fp3zKidfyWmV9LUjnFbZ9HrPcV76sUXpzD66htkxd3Vip/zZiQ3e6cSN+apwOHODT6cOAEVYSUYODAAASUkqAAgAAAAKAAABBAABAAAAfQAAAAEBBAABAAAALAEAAAIBAwADAAAAhgAAABIBAwABAAAAAQAAABoBBQABAAAAjAAAABsBBQABAAAAlAAAACgBAwABAAAAAwAAADEBAgANAAAAnAAAADIBAgAUAAAAqgAAAGmHBAABAAAAvgAAANAAAAAIAAgACACdBAAAGQAAAJ0EAAAZAAAAR0lNUCAyLjEwLjMwAAAyMDIzOjA5OjE1IDIzOjA4OjE4AAEAAaADAAEAAAABAAAAAAAAAAkA/gAEAAEAAAABAAAAAAEEAAEAAABqAAAAAQEEAAEAAAAAAQAAAgEDAAMAAABCAQAAAwEDAAEAAAAGAAAABgEDAAEAAAAGAAAAFQEDAAEAAAADAAAAAQIEAAEAAABIAQAAAgIEAAEAAADGCgAAAAAAAAgACAAIAP/Y/+AAEEpGSUYAAQEAAAEAAQAA/9sAQwAIBgYHBgUIBwcHCQkICgwUDQwLCwwZEhMPFB0aHx4dGhwcICQuJyAiLCMcHCg3KSwwMTQ0NB8nOT04MjwuMzQy/9sAQwEJCQkMCwwYDQ0YMiEcITIyMjIyMjIyMjIyMjIyMjIyMjIyMjIyMjIyMjIyMjIyMjIyMjIyMjIyMjIyMjIyMjIy/8AAEQgBAABqAwEiAAIRAQMRAf/EAB8AAAEFAQEBAQEBAAAAAAAAAAABAgMEBQYHCAkKC//EALUQAAIBAwMCBAMFBQQEAAABfQECAwAEEQUSITFBBhNRYQcicRQygZGhCCNCscEVUtHwJDNicoIJChYXGBkaJSYnKCkqNDU2Nzg5OkNERUZHSElKU1RVVldYWVpjZGVmZ2hpanN0dXZ3eHl6g4SFhoeIiYqSk5SVlpeYmZqio6Slpqeoqaqys7S1tre4ubrCw8TFxsfIycrS09TV1tfY2drh4uPk5ebn6Onq8fLz9PX29/j5+v/EAB8BAAMBAQEBAQEBAQEAAAAAAAABAgMEBQYHCAkKC//EALURAAIBAgQEAwQHBQQEAAECdwABAgMRBAUhMQYSQVEHYXETIjKBCBRCkaGxwQkjM1LwFWJy0QoWJDThJfEXGBkaJicoKSo1Njc4OTpDREVGR0hJSlNUVVZXWFlaY2RlZmdoaWpzdHV2d3h5eoKDhIWGh4iJipKTlJWWl5iZmqKjpKWmp6ipqrKztLW2t7i5usLDxMXGx8jJytLT1NXW19jZ2uLj5OXm5+jp6vLz9PX29/j5+v/aAAwDAQACEQMRAD8A+f6KKKACiiigAooooAKKKKACiiigAooqzaW3ntuY4RTz7+1bUKFTEVFSpK7Ym0ldkljbhj5rqcD7voa0M0AAAADAFFfq+U5XTy+h7OOsnu+7/wAjhqTc3cwqKKK/IjvCiiigAooooAKKKKACiinRo0jhFGSacYuTUVuwHwQNPJtXgDkn0rWjjWJAijgUyCBYEwOW7n1qWv07IMmWBp+1qr95L8F2/wAziq1OZ2WwUUUV9EYmFRRRX4cemFFFFABRRRQAUUUUAABJAAyT2rWtIBDCCR87ck/0qKyt9gMjryfu57Vcr73hvJORLGYha/ZT6ef+X3nLWq/ZQUUUV9ocwUUUUAYVFFFfhx6YUUUUAFFFFABV2ztNwEsg+X+EetRW1q05yeEHU1qgADAGAOgFfVcO5J9an9Zrr3Fsu7/yX4/eYVqnLotwooor9HOMKKKKACiiigDCooor8OPTCiiigAqSGFp32r07n0pqIzuFUZJOK14IhBEFGM9zjrXtZLlE8wra6Qju/wBF6/gZ1KnIvMeihEVB0AxS0UV+qU6cKcFCCslscLd9WFFFFWIKKKKACiiigDCooor8OPTCgDJwOtFaNnahVEr8seVHpXdl2Aq46uqNP5vsu5M5KKuya2t1t05wXPU1NRRX6zg8JSwlFUaS0X9XOCUnJ3YUUUV1EhRRRQAUUUUAFFFFAGFRRVi0gM0oJHyKcmvxTD0KmIqxpU1eTPSbSV2SWloXIlkHy9ge9aNGMAAdB0FFfq+U5ZTy+h7OOsnu+7/y7HDUm5u4UUUV6hmFFFFABRRRQAUUUUAFFFFAGNBEZpQnOO5HYVsKqooVRhR0pkUKQJtXn1PrUlfOZBkywNP2tVfvJfgu3+ZtVqczstgooor6MxCt3w2kVubvVriMSRWUYKof4pGOFH86q+HrCHU9etLOfd5UjHdtOCQATj9K6LRdLbUfDeo2kAAzfIG56IMfy5rxs2xtKlTlSm7fBd7e7KVnr6Jndg6E5SU0r729Ur/5GZ42VP8AhJHdFC+ZEjsB6kVztaniO7W91+7mjOU3BFPsoA/pWXXXllKVLBUqct1FL8DHFSU685Lq2FFFFdxzhRRRQAUUUUAFFFFABWjo+kTavcukZCRRqXklbooqlBEZ7iOIHBdgoJ9zivQhp1po/hieC7nxDHM4l2DaZzj5V/X9K8nNcx+qxjCHxzdlpf526+Xn5XO3B4b2zcpfCtynb2sFn460WK3jVE+yqxCjqSjZNZes3DaDLJYadeOHmU/bNp4LEk4HpgHHFbHiG+tdLgtriEg6pJbRqjD/AJZIF6/U5NcEzF2LMSWJySepNeblGHni1HE1fh5UrNfE4tvm16JvTzV+x04yoqN6cN7t3XRNLT8PuEooor6g8kKKKKACiikJCqWPQDJqZzjCLlJ2SGI7rGhZzgVmPcyF2IlOMnGM024uGnfJ4UdBUNfmOc57Vxda1FtQW26b82dtOkorXc3aKKK/UDhOz8M6Pa3uh/apSkbR3as8x6hVGcD6nH51ua3qFhYWk0t0qyzrcyGCE922gZPsM1zFpObfwMZByVv1bbnrjBrC1O/k1PUJruQBWkbO0Hge1fJ/2XVxuOlVqzfJGT0Xy0vvrrfy0Wup7P1uGHw6hCPvNL9dfkV5pXmlaSRizHuTmmUUV9WkkrI8du4UUUUxBRRRQAVmXd0ZfkThB+tT3V5sPlx4J/iJ/lVX7XJ6J/3yK/P+I86VdvCUX7q3fd/5I66NO3vMgoqf7XJ6J/3yKiLlmJOOeelfINLozoNuiiiv288wf50nkiLe3lg7tmeM+uKZRRSSS2HcKKKKYgooooAKrXlwIoyik+Y3THYVJczCCItxuPQVkMxZixOSeTXx/Emd+xi8JQfvPd9l29X+B0Uad/eYlFFFfnx1hRRRQBu0UUV+4nmBRRRQAUUUUAFNkbYhbaWx2HelZlRSzHCjqay57uSV8qxRR0ANeDnmcRwFLkg/3ktvLz/yNaVPmeuwkouJnLOjn/gPSo/Jl/55v/3yaXz5f+er/wDfRo8+X/nq/wD30a/MJzU5OUm22donky/883/75NHky/8APN/++TS+fL/z1f8A76NHny/89X/76NT7oxPJl/55v/3yaaVIOCDmn+fL/wA9X/76NMLEnJJzQ+XoBuUUUV+3nmBRRRQAUUVUup4iDEXb32jP4V52Z5jTwFB1J79F3ZcIOTsQXlyJT5afcB6+pqpU+22/vyfkKNtt/fk/IV+U4qvVxVV1asrt/wBfcd0UoqyIKKn2239+T8hRttv78n5CsOTzKIKKn2239+T8hRttv78n5Cjk8wIKKn2239+T8hUR2ZOCcdqTjYDbooor9vPMCiiobi4ECernoK58ViaWFpOtVdooqMXJ2Qy8nMSBF+83f0FZZ5OTSu7OxZiST1JpK/J8zzGpmFd1Z6Louy/rc7oQUFZBRRRXnFhRRRQAUUUUAFFFFAG7RRSFgoJYgAdzX7fOUYRcpOyR5u42WVYU3t09PWsmaZp5N7fgPSp5rqOV/mh3AdPmIqPzYP8An3/8fNfmGeZu8wq8sHanHZa6+b/Q7aVPkXmQUVP5sH/Pv/4+aPNg/wCff/x814PKu/5mpBRU/mwf8+//AI+aPNg/59//AB80cq7/AJgQUVP5sH/Pv/4+aPNg/wCff/x80cq7/mBBRU/mwf8APv8A+PmjzYP+ff8A8fNHKu/5gQUVP5sH/Pv/AOPmoiVLEhcDsM0NLuBt1mXtx5kmxGyg9O5qW9uCCYkOP7x/pVCvruJc5dabwdF+6vi8329F+Zz0adlzMKKKK+POgKKKKACiiigAooooAKKKKACiiigD/9lYTVAgGA4AADw/eHBhY2tldCBiZWdpbj0i77u/IiBpZD0iVzVNME1wQ2VoaUh6cmVTek5UY3prYzlkIj8+IDx4OnhtcG1ldGEgeG1sbnM6eD0iYWRvYmU6bnM6bWV0YS8iIHg6eG1wdGs9IlhNUCBDb3JlIDQuNC4wLUV4aXYyIj4gPHJkZjpSREYgeG1sbnM6cmRmPSJodHRwOi8vd3d3LnczLm9yZy8xOTk5LzAyLzIyLXJkZi1zeW50YXgtbnMjIj4gPHJkZjpEZXNjcmlwdGlvbiByZGY6YWJvdXQ9IiIgeG1sbnM6eG1wTU09Imh0dHA6Ly9ucy5hZG9iZS5jb20veGFwLzEuMC9tbS8iIHhtbG5zOnN0RXZ0PSJodHRwOi8vbnMuYWRvYmUuY29tL3hhcC8xLjAvc1R5cGUvUmVzb3VyY2VFdmVudCMiIHhtbG5zOkdJTVA9Imh0dHA6Ly93d3cuZ2ltcC5vcmcveG1wLyIgeG1sbnM6ZGM9Imh0dHA6Ly9wdXJsLm9yZy9kYy9lbGVtZW50cy8xLjEvIiB4bWxuczp0aWZmPSJodHRwOi8vbnMuYWRvYmUuY29tL3RpZmYvMS4wLyIgeG1sbnM6eG1wPSJodHRwOi8vbnMuYWRvYmUuY29tL3hhcC8xLjAvIiB4bXBNTTpEb2N1bWVudElEPSJnaW1wOmRvY2lkOmdpbXA6YjNmNTgzODYtMGUxYy00ODI1LWFlNGMtOWZhZWNiYjM3ODM5IiB4bXBNTTpJbnN0YW5jZUlEPSJ4bXAuaWlkOmQ1MDQ2MTBmLTFkZDMtNGZlNC05MTQxLTkwZDA1MTA2YjY3ZCIgeG1wTU06T3JpZ2luYWxEb2N1bWVudElEPSJ4bXAuZGlkOmQ3OWI0ZGVlLTYxYjEtNDc3NS1iNThmLWE5MWViN2Y1NmJkMyIgR0lNUDpBUEk9IjIuMCIgR0lNUDpQbGF0Zm9ybT0iTGludXgiIEdJTVA6VGltZVN0YW1wPSIxNjk0Nzg2OTAwMzczNDI4IiBHSU1QOlZlcnNpb249IjIuMTAuMzAiIGRjOkZvcm1hdD0iaW1hZ2Uvd2VicCIgdGlmZjpPcmllbnRhdGlvbj0iMSIgeG1wOkNyZWF0b3JUb29sPSJHSU1QIDIuMTAiPiA8eG1wTU06SGlzdG9yeT4gPHJkZjpTZXE+IDxyZGY6bGkgc3RFdnQ6YWN0aW9uPSJzYXZlZCIgc3RFdnQ6Y2hhbmdlZD0iLyIgc3RFdnQ6aW5zdGFuY2VJRD0ieG1wLmlpZDo2NWNjMWY4My1jOTUyLTQ4MmItOWNjYS1hY2Q5ZDZkNWJlOWMiIHN0RXZ0OnNvZnR3YXJlQWdlbnQ9IkdpbXAgMi4xMCAoTGludXgpIiBzdEV2dDp3aGVuPSIyMDIzLTA5LTAyVDIzOjAwOjAxKzA5OjAwIi8+IDxyZGY6bGkgc3RFdnQ6YWN0aW9uPSJzYXZlZCIgc3RFdnQ6Y2hhbmdlZD0iLyIgc3RFdnQ6aW5zdGFuY2VJRD0ieG1wLmlpZDowZmVkNjRiYS05OTY3LTQ5NjUtOTIyYi1mMDVjNTY1YjY4ODEiIHN0RXZ0OnNvZnR3YXJlQWdlbnQ9IkdpbXAgMi4xMCAoTGludXgpIiBzdEV2dDp3aGVuPSIyMDIzLTA5LTE0VDIyOjM3OjQ3KzA5OjAwIi8+IDxyZGY6bGkgc3RFdnQ6YWN0aW9uPSJzYXZlZCIgc3RFdnQ6Y2hhbmdlZD0iLyIgc3RFdnQ6aW5zdGFuY2VJRD0ieG1wLmlpZDo3ZGQyNjQyMC04MTNhLTRmNjQtOTVkYi0zZTczZmE5MzJhNTciIHN0RXZ0OnNvZnR3YXJlQWdlbnQ9IkdpbXAgMi4xMCAoTGludXgpIiBzdEV2dDp3aGVuPSIyMDIzLTA5LTE1VDIzOjA4OjIwKzA5OjAwIi8+IDwvcmRmOlNlcT4gPC94bXBNTTpIaXN0b3J5PiA8L3JkZjpEZXNjcmlwdGlvbj4gPC9yZGY6UkRGPiA8L3g6eG1wbWV0YT4gICAgICAgICAgICAgICAgICAgICAgICAgICAgICAgICAgICAgICAgICAgICAgICAgICAgICAgICAgICAgICAgICAgICAgICAgICAgICAgICAgICAgICAgICAgICAgICAgICAgICAgICAgICAgICAgICAgICAgICAgICAgICAgICAgICAgICAgICAgICAgICAgICAgICAgICAgICAgICAgICAgICAgICAgICAgICAgICAgICAgICAgICAgICAgICAgICAgICAgICAgICAgICAgICAgICAgICAgICAgICAgICAgICAgICAgICAgICAgICAgICAgICAgICAgICAgICAgICAgICAgICAgICAgICAgICAgICAgICAgICAgICAgICAgICAgICAgICAgICAgICAgICAgICAgICAgICAgICAgICAgICAgICAgICAgICAgICAgICAgICAgICAgICAgICAgICAgICAgICAgICAgICAgICAgICAgICAgICAgICAgICAgICAgICAgICAgICAgICAgICAgICAgICAgICAgICAgICAgICAgICAgICAgICAgICAgICAgICAgICAgICAgICAgICAgICAgICAgICAgICAgICAgICAgICAgICAgICAgICAgICAgICAgICAgICAgICAgICAgICAgICAgICAgICAgICAgICAgICAgICAgICAgICAgICAgICAgICAgICAgICAgICAgICAgICAgICAgICAgICAgICAgICAgICAgICAgICAgICAgICAgICAgICAgICAgICAgICAgICAgICAgICAgICAgICAgICAgICAgICAgICAgICAgICAgICAgICAgICAgICAgICAgICAgICAgICAgICAgICAgICAgICAgICAgICAgICAgICAgICAgICAgICAgICAgICAgICAgICAgICAgICAgICAgICAgICAgICAgICAgICAgICAgICAgICAgICAgICAgICAgICAgICAgICAgICAgICAgICAgICAgICAgICAgICAgICAgICAgICAgICAgICAgICAgICAgICAgICAgICAgICAgICAgICAgICAgICAgICAgICAgICAgICAgICAgICAgICAgICAgICAgICAgICAgICAgICAgICAgICAgICAgICAgICAgICAgICAgICAgICAgICAgICAgICAgICAgICAgICAgICAgICAgICAgICAgICAgICAgICAgICAgICAgICAgICAgICAgICAgICAgICAgICAgICAgICAgICAgICAgICAgICAgICAgICAgICAgICAgICAgICAgICAgICAgICAgICAgICAgICAgICAgICAgICAgICAgICAgICAgICAgICAgICAgICAgICAgICAgICAgICAgICAgICAgICAgICAgICAgICAgICAgICAgICAgICAgICAgICAgICAgICAgICAgICAgICAgICAgICAgICAgICAgICAgICAgICAgICAgICAgICAgICAgICAgICAgICAgICAgICAgICAgICAgICAgICAgICAgICAgICAgICAgICAgICAgICAgICAgICAgICAgICAgICAgICAgICAgICAgICAgICAgICAgICAgICAgICAgICAgICAgICAgICAgICAgICAgICAgICAgICAgICAgICAgICAgICAgICAgICAgICAgICAgICAgICAgICAgICAgICAgICAgICAgICAgICAgICAgICAgICAgICAgICAgICAgICAgICAgICAgICAgICAgICAgICAgICAgICAgICAgICAgICAgICAgICAgICAgICAgICAgICAgICAgICAgICAgICAgICAgICAgICAgICAgICAgICAgICAgICAgICAgICAgICAgICAgICAgICAgICAgICAgICAgICAgICAgICAgICAgICAgICAgICAgICAgICAgICAgICAgICAgICAgICAgICAgICAgICAgICAgICAgICAgICAgICAgICAgICAgICAgICAgICAgICAgICAgICAgICAgICAgICAgICAgICAgICAgICAgICAgICAgICAgICAgICAgICAgICAgICAgICAgICAgICAgICAgICAgICAgICAgICAgICAgICAgICAgICAgICAgICAgICAgICAgICAgICAgICAgICAgICAgICAgICAgICAgICAgICAgICAgICAgICAgICAgICAgICAgICAgICAgICAgICAgICAgICAgICAgICAgICAgICAgICAgICAgICAgICAgICAgICAgICAgICAgICAgICAgICAgICAgICAgICAgICAgICAgICAgICAgICAgICAgICAgICAgICAgICAgICAgICAgICAgICAgICAgICAgICAgICAgICAgICAgICAgICAgICAgICAgICAgICAgICAgICAgICAgICAgICAgICAgICAgICAgICAgICAgICAgICAgICAgICAgICAgICAgICAgICAgICAgICAgICAgICAgICAgICAgICAgICAgICAgICAgICAgICAgICAgICAgICAgICAgICAgICAgICAgICAgICAgICAgICAgICAgICAgICAgICAgICAgICAgICAgICAgICAgICAgICAgICAgICAgICAgICAgICAgICAgICAgICAgICAgICAgICAgICAgICAgICAgICAgICAgICAgICAgICAgICAgICAgICAgICAgICAgICAgICAgICA8P3hwYWNrZXQgZW5kPSJ3Ij8+;" parent="1" vertex="1">
                    <mxGeometry x="-1220" y="410" width="80" height="210" as="geometry"/>
                </mxCell>
                <mxCell id="37" value="" style="shape=image;verticalLabelPosition=bottom;labelBackgroundColor=default;verticalAlign=top;imageAspect=0;image=data:image/webp,UklGRkYtAABXRUJQVlA4WAoAAAA8AAAAfAAAKwEASUNDUKACAAAAAAKgbGNtcwQwAABtbnRyUkdCIFhZWiAH5wAJAA8ADgADAAZhY3NwQVBQTAAAAAAAAAAAAAAAAAAAAAAAAAAAAAAAAAAA9tYAAQAAAADTLWxjbXMAAAAAAAAAAAAAAAAAAAAAAAAAAAAAAAAAAAAAAAAAAAAAAAAAAAAAAAAAAAAAAA1kZXNjAAABIAAAAEBjcHJ0AAABYAAAADZ3dHB0AAABmAAAABRjaGFkAAABrAAAACxyWFlaAAAB2AAAABRiWFlaAAAB7AAAABRnWFlaAAACAAAAABRyVFJDAAACFAAAACBnVFJDAAACFAAAACBiVFJDAAACFAAAACBjaHJtAAACNAAAACRkbW5kAAACWAAAACRkbWRkAAACfAAAACRtbHVjAAAAAAAAAAEAAAAMZW5VUwAAACQAAAAcAEcASQBNAFAAIABiAHUAaQBsAHQALQBpAG4AIABzAFIARwBCbWx1YwAAAAAAAAABAAAADGVuVVMAAAAaAAAAHABQAHUAYgBsAGkAYwAgAEQAbwBtAGEAaQBuAABYWVogAAAAAAAA9tYAAQAAAADTLXNmMzIAAAAAAAEMQgAABd7///MlAAAHkwAA/ZD///uh///9ogAAA9wAAMBuWFlaIAAAAAAAAG+gAAA49QAAA5BYWVogAAAAAAAAJJ8AAA+EAAC2xFhZWiAAAAAAAABilwAAt4cAABjZcGFyYQAAAAAAAwAAAAJmZgAA8qcAAA1ZAAAT0AAACltjaHJtAAAAAAADAAAAAKPXAABUfAAATM0AAJmaAAAmZwAAD1xtbHVjAAAAAAAAAAEAAAAMZW5VUwAAAAgAAAAcAEcASQBNAFBtbHVjAAAAAAAAAAEAAAAMZW5VUwAAAAgAAAAcAHMAUgBHAEJWUDhMSRAAAC98wEoQakDatpGS/ccuig7+g4iYAP6KeszKjMglVJRGCV0OuVRURORmL6vV+P+e7VJ+//s5oQBKwG0DeCRDDXgogfZPet/run/+Ly+ipIUjj99aeAeXg75msHSx7pSBSpskaXMT1xxcRuXQQIYyVpIU88ijCJL5EZvIsQQKOAU8ZNzOs46kmJVnaODotwPqyGGzZu4GdtYx8xyFXEk6oRoy3OSgootyc9SUgM+gkc+SoYSc0zuzUR63BTAoCkCdFh5iC8gz6wgOdDx+7elDUm3bstWstc85t6BogQC0VF1cREQcZMRRDOAmHmjXtq3aisiWwPSPCMgAvt3dreqcfdZec8y5YEW2WoEpXxjABErw0uAmEYMSTCCg6StnAujW/+fKqWb+V97t4r333ts1eCfvvfd7ZXbldc3M3FXrQhEUsaXQC4c2qEElUAWFEJMSEhOSbj0c6plQLRDfDJVBSqiYFlALFOBboBZC1UCqkHhjenAtUAfEhEpVEV2QUcPWQK4iaIiUUPFtgVI4yqiBkMy89yJeqAqeObIAACwbK0l1Rrt7tm3jy7Zt27Zt27Z9tm3bV6ZNOwkCAJBt9JXz3ex2tm3btm3btm0VZ822jbop4v5PgFNH65OapcLwFzNU3MhAP2K2/5jhRg9IHi/rUkMFDTKAebRMxGBXNEM48KpQwjxogMnAj1WFwshFwjAbhpVVOZhpExikFZwwZSg1DMQqUJCSAbwqLRXeAmGrkVihWai8NmWxggn0XLRpk1hZlpuZDa3myMfWf9bxbCOMZmkp4VoRlTTKmiMbzAiiA4VUxApDIn6IKZpbMhgCk9vrZVoY3PB0c0+srA9D0d2uEiss1OzaKssYRKqz34pFO+deEivLTsNPY8gDOgxfRCReqHaDURoVVnb/WEU3OiSVTAq3FaH6jcaUw4x5LFs+oxEvcy8jT2NNwVDAXBFD7CDTpkSr8rKNC7EK6zFlK8ugMa+9CksHb5WtzNBILSWE3ETKGvu6Q+9Acnsa15qzXo7yoIaWl3lZ5dmjxGsd4tK419mFkewhM4wWMk9N07DCKDDclpjV6RWebu5p3GvLZhnq6n6Th6w6SIGqSP0uqQ5IB05Rm/rdhhPSuVyB1tNfF6KbxAslNxilnAsp3LK//CYp58wJFz2rIbpSUZj1M309EYQNoZsVbP1YVoI8hVw7qITJldSywowPioKuGatt6LQCrxcsK0yJWHXeikVHzDB7of1aYpdFc1FiV14Y3OJJSbTMMpPGHpJo4UbPqqSWFdbIz4dSoWXVCeepSKysz7hoq0zriPeYg1pFWQs77ts0Sqwq0GMkNQ2pCqQDW2pT0zSckF7LFXF8SGLhAxOvyuWVHqWcCyk7yzoc3ZdyzpywS4/OWSqKNy6UBHLMRpHHVVF5n0JsQQU3i9etBqXwsjoMrVYNxrMeukTMzkd5i5hhOtF5LTHEgc5FGWK3QjwmDIGh9ecXY4dhpnXS3ZWy6jGGGf1YTM5Wqs0YrmzwcuZ1tY9l8Xo88KhOgzOXAXcmZlrRqTblUki9rcK7VZtzJoUmzXmq2bCQHWYuBhpeZrk50yTRsvPHKqrVSC0p7FaEUg2Hg0KgtymYVdRaIWILrlmI3QOZ2ZWY9TLL6lESrQorkhqppoM4R4VPm9TQOs+PW9V1CAtQub3ECy03PY3qe/x2MbsxoWloYbWaVEmq8fGaMU/E1J5QrY+XVeWkiN3zHyL2+IGIVZb9SsTWLxWxar8TC0fMfnIIM7Pixr3ECxV/T5N4fWHjDUkMx+hG7x7uKlp3fNolhkNeFcpNoMmZ1lNuvOswd1kdMWiTWI7BjvuOiN3hGBnA623fU9lqpCDRYtrrSW9UO2jWU9uUFaIA4KjmtOw3E86UUuv2k4G6WfCjj7dJAXr0QJ5f+LNTIwRmfaxOKBN4bs0ct3hDqxDT4HDMBaqK1Zj1idg/qaLbzIG0Uiu7XLI/mqUdN3XN6XvdXBzUUu5UGxepWJIE621YfKE6WXe0NMoKEiMo6/GMJNvaNu5M6XspldsohpZlx2GdYEa2fIZUFKapzUtLXlDxry5gQeDY9SHJ1CDu2LtRJ5/4YK8o1O17/hLFauvabUAYpqDyf62aorB990aNPPouvV4OIyUECj71NhfHhDd/xTSKaaj4dwvRNKybjuoDg7+wm3sK83N/kMBuSgyvCGlDTiB/XvSnhcq6G2de1MbDUHS3qxSI3jV/wD0RzbI/zX/imIaL/7Sostmcofd1cdI2W2U1CnV424q/bkUt6S6JDwbQAjGgtLUiJLwZoyYe8pace0lBVkvMfAbDAIDHXZynWHX35R+cB/CsxoTImrh87A7UhGXncoXZxwjBLJRy9eeqsXSPcS7t5SgxlHac/Me5ufWTXGKb83UCsUiqBdOxcNMUht7t3beiVvqumvLs1TFE8z4MEoOw89Q/zrfO3WCi8e69K/2qA2t5R4/SqISBGEj0bqTYdOWMB68OCC751s50yT1XfiIKf5f1eFgqD5jSlTVYB3b/Wkf105NKDgMxoOhT2w4gXPKtjepiqfcXEIVFNqU3JYeX/WlGDuDhAKvUVGVoFOzsRos+dlPyqcyvF9yAlNuTimxh2bw/eDj4rdHkHBpGWOabCWIXYYpVqX+1qhqUR9QJNp7HEx+Yf+D/HEjOOc/O8yD2IslNpNrMj8QSkWoc184/OYMB7otutOV9claQrzzVW3Pez6+djY4pbOWYfbek/5pp+jFXvmIOBoQCwI0mtqW4l95HYWKAbVh8kvH4l9/owC848/NftcvZwbEXSOACnleNYgdpc5uvCMM3d+BzU2ZqwdcJjOCO5g0AAtwE4M4Pa8gcHjUGqY1sgIy7r1Ap41YAoABR+8pNqqrlfx0b0NutnHGPIDq9x5Po2x/elHVOb192jcv03d9nk8dtFODGndwBsK3coKpq3vexgxBsejmkPsfh1yCVh0c2ZQPADcOQSi+qyWms9NmMuxcggjkw+QZl284Dy/I1qqqc4d99oClCNFjpXaNopiunn+a9GdcMeWdCeXAtXiO1inzCZM/0lYRyYd+hn3K14/YDW5bl60xTnY3Du4Zpmhmvu9okXakkeMWskxeSUlxJkLqWhwEAf7hhwb5c4SErduuWX3XErM+UyKuizZZtuwAxgLiS4k49oxt7mQfSNX/kbWN2HCGaqfdn/rGuWNc0tVm+OLxrqSVCsVb8FdLX60ZkKfUNxpR7KOaWtJqYUkKIJb+6A2xsAOCPm2/fe3XECCv/NxFDOf/tUOfpoK/YEyJujCI8kDTt5aT0RzcjxPMTOtB6Tv24+XbAG2zjLxnBqPBuqgxqjmjG6JbZtBHJyPumB5Iw4rS/H+KWtVszUxYOuQQKnjuIHiiAP5iqmvdt7D24CAteTESf/55xeWV27+sBqZdLZB10KpBAigw43Z8HUJ2Q+XIKEDSpF10M7Ta3Yf54cuxKwvk/imgSfZkc6MLrRRBu217OUZVjlngYXoygqV2436LPkCkhpj1bDK7LKvVupdWe5o4M24qNodyfE9bN23KVLS23Oc2v56ztZalITRtPqbzasswD0ecNuiv9Mg4ewIEzJGYS056O5z6dJJqqKzk/uAH35FB5ZEZroZ+MDWMuUy0nmNBqtjENzOUeSqDArw6tqU1MEXgg+gyFmQrOhGgiGbYUBq2afQ4IOTnUhmU0g5DzcVhw4SPQxje1vwdjbs0kNTbVmakgAAfOUIilSO0iimhm372BOQQgaluxrmFVN5F0+NWHNaH19NoU24oOtTwcU2umIpm70hKBB6JPU9y6gqZqxt9Yxix8HCBmX75CdDVXWt70/rSPGKG7JjWzifaV+yCRYDxeU2uGLJm70pJHLmlEtvRfg+AhOHpaYGHbik0pN2H5jPPvgLBrbVLkCLXOw6gA05jr8RGCf5tav8iShSstZeQeMRVTn5JvAAVa159uWHu3ecqVfeUFglAvpnBDkRdEbft/80DOe+qvLxTcXQFK8PuxJFk609JG7lGilPaEjBG8YvJJS3b09oNrQCOjnb2cS2rjKQnJHOGhhDdk1USUVgY0fwCAmdq+yLJVbWqqIAAHTpMupj1entb31ZWUSlXN7dt3/uZFahVz2RTxRXeAGx/BLB1zQ1UTMagNsUIBQtaNW4qmW5uWeqKbGoSMJ6N/UUtODKoNr0/jXFKKSkieRenBIIgtnXD+0hHUhVnukgkXrQVR1PxSm556v5sZss35zpQQGpKyp/d46fVjhKekyBFvMBIOAtjS8WcU6zmCeiZ3fnAm5CmmFDG/ONNS7ndTU0Kz3kgFwcunXfZjCAJE/UpqojrGiHpQlaH1Fd61jMg6wlNVRcmZkgyeQDch0pJkbdm2jRhUahpFDtJmmYe0bNwZ0fQUxUAhhPrMrPkjdtVqI1dSEnhyo0+RiGocd52CWORs00Q3eKcHtXzsGdP0iCnSUhywava1ue2TUm1cl5QoeHL2H/2e8WpacAZ9N6TISkVuB4WHtWzsWZ8sm9n2/r9qak1TakxdKQkgcBYMpoU2ABDCfD5JcYG8ir08sP9/iUFNmOF9NrWmyzUWtWlpwLNfSY1inzB1ZtRLCY5gPTGgC9OCTlMrmlJjJCYVYw+uX9EnQepaHtqjPjGwG3GCzjdyTph1y86rQy/1DLWlzIO7xLCeGNiDWIE3oj4/et92T+ehllLfYEy5h/f/rzP93AJzobW9nHNsiLgx2uHRKCv6Q5BOj+FR3wXvWD6fFX0xe3fWO4nj5Rl/7oFd5DpYut5j0Ebf7zjz/5vYt+5d8xiS2rhM+nUex0bvPzj930ccCYAIb5eiGqBwj8TKWAHnnLdJUZu++3ssUgdNRCs6VHpE8UNAOJYIs9+vc17lZOwyp1XS16zKnVbZ9HrQ4bz0Y4uWM/voGmbHGFYndu+9ndjAvNx5lWVvcWIrKpRObGI+RHglLbqW00q9E/d2Vin1d/qc89p0ofUZzkuH/MSJFbPPr5ktXe/ETPdXnNgAZXdiU/s7sUP2c2JbVWjP5LUwM6n1zuv2hnu10ypabMSdVpkAvn91Xpo0lM4M7bOG2OgYEHVeBbUas8yJDWxOd2JT+zuxyQ61nNjEfIuE2aJrOTGzem9nlZK+ZvW/O69NF1qOcF46BCGdWQftczA7ZokTO+p1Tmxwbie2rEOHE5v8lhPb6lMzfCPMdsa2Oq/bGzTO/+a0ihY/wWmViX//1XnpPsZOZ2bRnj4vhBl04Uad2ImVhzmxAYI7san9ndhkhyud2AT0sbQw+/21nJilGucwZ5WSkJmLOa9Nb/wi56VDEJYz+9I5mB2zxImZ6r2d2OAWTmzZHk5sxdCJbWV6IyPMdn6J87r9Pz/gtIoWP8FplYl/mx3OS/cx9nJmD5/eL4TZ0vlO7JRzOrHBO53Y1P5ObHI/JzZx8X/xSlp0LaeVegfez1ml1N/pc85r0xujCOelQ77pzDro/IlYOWaJ8yo73NqJDczlTmxqfye2YuTEXrnPuZj9fp3zKidfyWmV9LUjnFbZ9HrPcV76sUXpzD66htkxd3Vip/zZiQ3e6cSN+apwOHODT6cOAEVYSUYODAAASUkqAAgAAAAKAAABBAABAAAAfQAAAAEBBAABAAAALAEAAAIBAwADAAAAhgAAABIBAwABAAAAAQAAABoBBQABAAAAjAAAABsBBQABAAAAlAAAACgBAwABAAAAAwAAADEBAgANAAAAnAAAADIBAgAUAAAAqgAAAGmHBAABAAAAvgAAANAAAAAIAAgACACdBAAAGQAAAJ0EAAAZAAAAR0lNUCAyLjEwLjMwAAAyMDIzOjA5OjE1IDIzOjA4OjE4AAEAAaADAAEAAAABAAAAAAAAAAkA/gAEAAEAAAABAAAAAAEEAAEAAABqAAAAAQEEAAEAAAAAAQAAAgEDAAMAAABCAQAAAwEDAAEAAAAGAAAABgEDAAEAAAAGAAAAFQEDAAEAAAADAAAAAQIEAAEAAABIAQAAAgIEAAEAAADGCgAAAAAAAAgACAAIAP/Y/+AAEEpGSUYAAQEAAAEAAQAA/9sAQwAIBgYHBgUIBwcHCQkICgwUDQwLCwwZEhMPFB0aHx4dGhwcICQuJyAiLCMcHCg3KSwwMTQ0NB8nOT04MjwuMzQy/9sAQwEJCQkMCwwYDQ0YMiEcITIyMjIyMjIyMjIyMjIyMjIyMjIyMjIyMjIyMjIyMjIyMjIyMjIyMjIyMjIyMjIyMjIy/8AAEQgBAABqAwEiAAIRAQMRAf/EAB8AAAEFAQEBAQEBAAAAAAAAAAABAgMEBQYHCAkKC//EALUQAAIBAwMCBAMFBQQEAAABfQECAwAEEQUSITFBBhNRYQcicRQygZGhCCNCscEVUtHwJDNicoIJChYXGBkaJSYnKCkqNDU2Nzg5OkNERUZHSElKU1RVVldYWVpjZGVmZ2hpanN0dXZ3eHl6g4SFhoeIiYqSk5SVlpeYmZqio6Slpqeoqaqys7S1tre4ubrCw8TFxsfIycrS09TV1tfY2drh4uPk5ebn6Onq8fLz9PX29/j5+v/EAB8BAAMBAQEBAQEBAQEAAAAAAAABAgMEBQYHCAkKC//EALURAAIBAgQEAwQHBQQEAAECdwABAgMRBAUhMQYSQVEHYXETIjKBCBRCkaGxwQkjM1LwFWJy0QoWJDThJfEXGBkaJicoKSo1Njc4OTpDREVGR0hJSlNUVVZXWFlaY2RlZmdoaWpzdHV2d3h5eoKDhIWGh4iJipKTlJWWl5iZmqKjpKWmp6ipqrKztLW2t7i5usLDxMXGx8jJytLT1NXW19jZ2uLj5OXm5+jp6vLz9PX29/j5+v/aAAwDAQACEQMRAD8A+f6KKKACiiigAooooAKKKKACiiigAooqzaW3ntuY4RTz7+1bUKFTEVFSpK7Ym0ldkljbhj5rqcD7voa0M0AAAADAFFfq+U5XTy+h7OOsnu+7/wAjhqTc3cwqKKK/IjvCiiigAooooAKKKKACiinRo0jhFGSacYuTUVuwHwQNPJtXgDkn0rWjjWJAijgUyCBYEwOW7n1qWv07IMmWBp+1qr95L8F2/wAziq1OZ2WwUUUV9EYmFRRRX4cemFFFFABRRRQAUUUUAABJAAyT2rWtIBDCCR87ck/0qKyt9gMjryfu57Vcr73hvJORLGYha/ZT6ef+X3nLWq/ZQUUUV9ocwUUUUAYVFFFfhx6YUUUUAFFFFABV2ztNwEsg+X+EetRW1q05yeEHU1qgADAGAOgFfVcO5J9an9Zrr3Fsu7/yX4/eYVqnLotwooor9HOMKKKKACiiigDCooor8OPTCiiigAqSGFp32r07n0pqIzuFUZJOK14IhBEFGM9zjrXtZLlE8wra6Qju/wBF6/gZ1KnIvMeihEVB0AxS0UV+qU6cKcFCCslscLd9WFFFFWIKKKKACiiigDCooor8OPTCgDJwOtFaNnahVEr8seVHpXdl2Aq46uqNP5vsu5M5KKuya2t1t05wXPU1NRRX6zg8JSwlFUaS0X9XOCUnJ3YUUUV1EhRRRQAUUUUAFFFFAGFRRVi0gM0oJHyKcmvxTD0KmIqxpU1eTPSbSV2SWloXIlkHy9ge9aNGMAAdB0FFfq+U5ZTy+h7OOsnu+7/y7HDUm5u4UUUV6hmFFFFABRRRQAUUUUAFFFFAGNBEZpQnOO5HYVsKqooVRhR0pkUKQJtXn1PrUlfOZBkywNP2tVfvJfgu3+ZtVqczstgooor6MxCt3w2kVubvVriMSRWUYKof4pGOFH86q+HrCHU9etLOfd5UjHdtOCQATj9K6LRdLbUfDeo2kAAzfIG56IMfy5rxs2xtKlTlSm7fBd7e7KVnr6Jndg6E5SU0r729Ur/5GZ42VP8AhJHdFC+ZEjsB6kVztaniO7W91+7mjOU3BFPsoA/pWXXXllKVLBUqct1FL8DHFSU685Lq2FFFFdxzhRRRQAUUUUAFFFFABWjo+kTavcukZCRRqXklbooqlBEZ7iOIHBdgoJ9zivQhp1po/hieC7nxDHM4l2DaZzj5V/X9K8nNcx+qxjCHxzdlpf526+Xn5XO3B4b2zcpfCtynb2sFn460WK3jVE+yqxCjqSjZNZes3DaDLJYadeOHmU/bNp4LEk4HpgHHFbHiG+tdLgtriEg6pJbRqjD/AJZIF6/U5NcEzF2LMSWJySepNeblGHni1HE1fh5UrNfE4tvm16JvTzV+x04yoqN6cN7t3XRNLT8PuEooor6g8kKKKKACiikJCqWPQDJqZzjCLlJ2SGI7rGhZzgVmPcyF2IlOMnGM024uGnfJ4UdBUNfmOc57Vxda1FtQW26b82dtOkorXc3aKKK/UDhOz8M6Pa3uh/apSkbR3as8x6hVGcD6nH51ua3qFhYWk0t0qyzrcyGCE922gZPsM1zFpObfwMZByVv1bbnrjBrC1O/k1PUJruQBWkbO0Hge1fJ/2XVxuOlVqzfJGT0Xy0vvrrfy0Wup7P1uGHw6hCPvNL9dfkV5pXmlaSRizHuTmmUUV9WkkrI8du4UUUUxBRRRQAVmXd0ZfkThB+tT3V5sPlx4J/iJ/lVX7XJ6J/3yK/P+I86VdvCUX7q3fd/5I66NO3vMgoqf7XJ6J/3yKiLlmJOOeelfINLozoNuiiiv288wf50nkiLe3lg7tmeM+uKZRRSSS2HcKKKKYgooooAKrXlwIoyik+Y3THYVJczCCItxuPQVkMxZixOSeTXx/Emd+xi8JQfvPd9l29X+B0Uad/eYlFFFfnx1hRRRQBu0UUV+4nmBRRRQAUUUUAFNkbYhbaWx2HelZlRSzHCjqay57uSV8qxRR0ANeDnmcRwFLkg/3ktvLz/yNaVPmeuwkouJnLOjn/gPSo/Jl/55v/3yaXz5f+er/wDfRo8+X/nq/wD30a/MJzU5OUm22donky/883/75NHky/8APN/++TS+fL/z1f8A76NHny/89X/76NT7oxPJl/55v/3yaaVIOCDmn+fL/wA9X/76NMLEnJJzQ+XoBuUUUV+3nmBRRRQAUUVUup4iDEXb32jP4V52Z5jTwFB1J79F3ZcIOTsQXlyJT5afcB6+pqpU+22/vyfkKNtt/fk/IV+U4qvVxVV1asrt/wBfcd0UoqyIKKn2239+T8hRttv78n5CsOTzKIKKn2239+T8hRttv78n5Cjk8wIKKn2239+T8hUR2ZOCcdqTjYDbooor9vPMCiiobi4ECernoK58ViaWFpOtVdooqMXJ2Qy8nMSBF+83f0FZZ5OTSu7OxZiST1JpK/J8zzGpmFd1Z6Louy/rc7oQUFZBRRRXnFhRRRQAUUUUAFFFFAG7RRSFgoJYgAdzX7fOUYRcpOyR5u42WVYU3t09PWsmaZp5N7fgPSp5rqOV/mh3AdPmIqPzYP8An3/8fNfmGeZu8wq8sHanHZa6+b/Q7aVPkXmQUVP5sH/Pv/4+aPNg/wCff/x814PKu/5mpBRU/mwf8+//AI+aPNg/59//AB80cq7/AJgQUVP5sH/Pv/4+aPNg/wCff/x80cq7/mBBRU/mwf8APv8A+PmjzYP+ff8A8fNHKu/5gQUVP5sH/Pv/AOPmoiVLEhcDsM0NLuBt1mXtx5kmxGyg9O5qW9uCCYkOP7x/pVCvruJc5dabwdF+6vi8329F+Zz0adlzMKKKK+POgKKKKACiiigAooooAKKKKACiiigD/9lYTVAgGA4AADw/eHBhY2tldCBiZWdpbj0i77u/IiBpZD0iVzVNME1wQ2VoaUh6cmVTek5UY3prYzlkIj8+IDx4OnhtcG1ldGEgeG1sbnM6eD0iYWRvYmU6bnM6bWV0YS8iIHg6eG1wdGs9IlhNUCBDb3JlIDQuNC4wLUV4aXYyIj4gPHJkZjpSREYgeG1sbnM6cmRmPSJodHRwOi8vd3d3LnczLm9yZy8xOTk5LzAyLzIyLXJkZi1zeW50YXgtbnMjIj4gPHJkZjpEZXNjcmlwdGlvbiByZGY6YWJvdXQ9IiIgeG1sbnM6eG1wTU09Imh0dHA6Ly9ucy5hZG9iZS5jb20veGFwLzEuMC9tbS8iIHhtbG5zOnN0RXZ0PSJodHRwOi8vbnMuYWRvYmUuY29tL3hhcC8xLjAvc1R5cGUvUmVzb3VyY2VFdmVudCMiIHhtbG5zOkdJTVA9Imh0dHA6Ly93d3cuZ2ltcC5vcmcveG1wLyIgeG1sbnM6ZGM9Imh0dHA6Ly9wdXJsLm9yZy9kYy9lbGVtZW50cy8xLjEvIiB4bWxuczp0aWZmPSJodHRwOi8vbnMuYWRvYmUuY29tL3RpZmYvMS4wLyIgeG1sbnM6eG1wPSJodHRwOi8vbnMuYWRvYmUuY29tL3hhcC8xLjAvIiB4bXBNTTpEb2N1bWVudElEPSJnaW1wOmRvY2lkOmdpbXA6YjNmNTgzODYtMGUxYy00ODI1LWFlNGMtOWZhZWNiYjM3ODM5IiB4bXBNTTpJbnN0YW5jZUlEPSJ4bXAuaWlkOmQ1MDQ2MTBmLTFkZDMtNGZlNC05MTQxLTkwZDA1MTA2YjY3ZCIgeG1wTU06T3JpZ2luYWxEb2N1bWVudElEPSJ4bXAuZGlkOmQ3OWI0ZGVlLTYxYjEtNDc3NS1iNThmLWE5MWViN2Y1NmJkMyIgR0lNUDpBUEk9IjIuMCIgR0lNUDpQbGF0Zm9ybT0iTGludXgiIEdJTVA6VGltZVN0YW1wPSIxNjk0Nzg2OTAwMzczNDI4IiBHSU1QOlZlcnNpb249IjIuMTAuMzAiIGRjOkZvcm1hdD0iaW1hZ2Uvd2VicCIgdGlmZjpPcmllbnRhdGlvbj0iMSIgeG1wOkNyZWF0b3JUb29sPSJHSU1QIDIuMTAiPiA8eG1wTU06SGlzdG9yeT4gPHJkZjpTZXE+IDxyZGY6bGkgc3RFdnQ6YWN0aW9uPSJzYXZlZCIgc3RFdnQ6Y2hhbmdlZD0iLyIgc3RFdnQ6aW5zdGFuY2VJRD0ieG1wLmlpZDo2NWNjMWY4My1jOTUyLTQ4MmItOWNjYS1hY2Q5ZDZkNWJlOWMiIHN0RXZ0OnNvZnR3YXJlQWdlbnQ9IkdpbXAgMi4xMCAoTGludXgpIiBzdEV2dDp3aGVuPSIyMDIzLTA5LTAyVDIzOjAwOjAxKzA5OjAwIi8+IDxyZGY6bGkgc3RFdnQ6YWN0aW9uPSJzYXZlZCIgc3RFdnQ6Y2hhbmdlZD0iLyIgc3RFdnQ6aW5zdGFuY2VJRD0ieG1wLmlpZDowZmVkNjRiYS05OTY3LTQ5NjUtOTIyYi1mMDVjNTY1YjY4ODEiIHN0RXZ0OnNvZnR3YXJlQWdlbnQ9IkdpbXAgMi4xMCAoTGludXgpIiBzdEV2dDp3aGVuPSIyMDIzLTA5LTE0VDIyOjM3OjQ3KzA5OjAwIi8+IDxyZGY6bGkgc3RFdnQ6YWN0aW9uPSJzYXZlZCIgc3RFdnQ6Y2hhbmdlZD0iLyIgc3RFdnQ6aW5zdGFuY2VJRD0ieG1wLmlpZDo3ZGQyNjQyMC04MTNhLTRmNjQtOTVkYi0zZTczZmE5MzJhNTciIHN0RXZ0OnNvZnR3YXJlQWdlbnQ9IkdpbXAgMi4xMCAoTGludXgpIiBzdEV2dDp3aGVuPSIyMDIzLTA5LTE1VDIzOjA4OjIwKzA5OjAwIi8+IDwvcmRmOlNlcT4gPC94bXBNTTpIaXN0b3J5PiA8L3JkZjpEZXNjcmlwdGlvbj4gPC9yZGY6UkRGPiA8L3g6eG1wbWV0YT4gICAgICAgICAgICAgICAgICAgICAgICAgICAgICAgICAgICAgICAgICAgICAgICAgICAgICAgICAgICAgICAgICAgICAgICAgICAgICAgICAgICAgICAgICAgICAgICAgICAgICAgICAgICAgICAgICAgICAgICAgICAgICAgICAgICAgICAgICAgICAgICAgICAgICAgICAgICAgICAgICAgICAgICAgICAgICAgICAgICAgICAgICAgICAgICAgICAgICAgICAgICAgICAgICAgICAgICAgICAgICAgICAgICAgICAgICAgICAgICAgICAgICAgICAgICAgICAgICAgICAgICAgICAgICAgICAgICAgICAgICAgICAgICAgICAgICAgICAgICAgICAgICAgICAgICAgICAgICAgICAgICAgICAgICAgICAgICAgICAgICAgICAgICAgICAgICAgICAgICAgICAgICAgICAgICAgICAgICAgICAgICAgICAgICAgICAgICAgICAgICAgICAgICAgICAgICAgICAgICAgICAgICAgICAgICAgICAgICAgICAgICAgICAgICAgICAgICAgICAgICAgICAgICAgICAgICAgICAgICAgICAgICAgICAgICAgICAgICAgICAgICAgICAgICAgICAgICAgICAgICAgICAgICAgICAgICAgICAgICAgICAgICAgICAgICAgICAgICAgICAgICAgICAgICAgICAgICAgICAgICAgICAgICAgICAgICAgICAgICAgICAgICAgICAgICAgICAgICAgICAgICAgICAgICAgICAgICAgICAgICAgICAgICAgICAgICAgICAgICAgICAgICAgICAgICAgICAgICAgICAgICAgICAgICAgICAgICAgICAgICAgICAgICAgICAgICAgICAgICAgICAgICAgICAgICAgICAgICAgICAgICAgICAgICAgICAgICAgICAgICAgICAgICAgICAgICAgICAgICAgICAgICAgICAgICAgICAgICAgICAgICAgICAgICAgICAgICAgICAgICAgICAgICAgICAgICAgICAgICAgICAgICAgICAgICAgICAgICAgICAgICAgICAgICAgICAgICAgICAgICAgICAgICAgICAgICAgICAgICAgICAgICAgICAgICAgICAgICAgICAgICAgICAgICAgICAgICAgICAgICAgICAgICAgICAgICAgICAgICAgICAgICAgICAgICAgICAgICAgICAgICAgICAgICAgICAgICAgICAgICAgICAgICAgICAgICAgICAgICAgICAgICAgICAgICAgICAgICAgICAgICAgICAgICAgICAgICAgICAgICAgICAgICAgICAgICAgICAgICAgICAgICAgICAgICAgICAgICAgICAgICAgICAgICAgICAgICAgICAgICAgICAgICAgICAgICAgICAgICAgICAgICAgICAgICAgICAgICAgICAgICAgICAgICAgICAgICAgICAgICAgICAgICAgICAgICAgICAgICAgICAgICAgICAgICAgICAgICAgICAgICAgICAgICAgICAgICAgICAgICAgICAgICAgICAgICAgICAgICAgICAgICAgICAgICAgICAgICAgICAgICAgICAgICAgICAgICAgICAgICAgICAgICAgICAgICAgICAgICAgICAgICAgICAgICAgICAgICAgICAgICAgICAgICAgICAgICAgICAgICAgICAgICAgICAgICAgICAgICAgICAgICAgICAgICAgICAgICAgICAgICAgICAgICAgICAgICAgICAgICAgICAgICAgICAgICAgICAgICAgICAgICAgICAgICAgICAgICAgICAgICAgICAgICAgICAgICAgICAgICAgICAgICAgICAgICAgICAgICAgICAgICAgICAgICAgICAgICAgICAgICAgICAgICAgICAgICAgICAgICAgICAgICAgICAgICAgICAgICAgICAgICAgICAgICAgICAgICAgICAgICAgICAgICAgICAgICAgICAgICAgICAgICAgICAgICAgICAgICAgICAgICAgICAgICAgICAgICAgICAgICAgICAgICAgICAgICAgICAgICAgICAgICAgICAgICAgICAgICAgICAgICAgICAgICAgICAgICAgICAgICAgICAgICAgICAgICAgICAgICAgICAgICAgICAgICAgICAgICAgICAgICAgICAgICAgICAgICAgICAgICAgICAgICAgICAgICAgICAgICAgICAgICAgICAgICAgICAgICAgICAgICAgICAgICAgICAgICAgICAgICAgICAgICAgICAgICAgICAgICAgICAgICAgICAgICAgICAgICAgICAgICAgICAgICAgICAgICAgICAgICAgICAgICAgICAgICAgICAgICAgICAgICAgICAgICAgICAgICAgICAgICAgICAgICAgICAgICAgICAgICAgICAgICAgICAgICAgICAgICAgICAgICAgICAgICAgICAgICAgICAgICAgICAgICAgICAgICAgICAgICAgICAgICAgICAgICAgICAgICAgICAgICAgICAgICAgICAgICAgICAgICAgICA8P3hwYWNrZXQgZW5kPSJ3Ij8+;" parent="1" vertex="1">
                    <mxGeometry x="-1220" y="80" width="80" height="200" as="geometry"/>
                </mxCell>
                <mxCell id="38" value="" style="shape=image;verticalLabelPosition=bottom;labelBackgroundColor=default;verticalAlign=top;imageAspect=0;image=data:image/webp,UklGRnolAABXRUJQVlA4WAoAAAA8AAAAfAAAKwEASUNDUKACAAAAAAKgbGNtcwQwAABtbnRyUkdCIFhZWiAH5wAJAA8ADgADAAZhY3NwQVBQTAAAAAAAAAAAAAAAAAAAAAAAAAAAAAAAAAAA9tYAAQAAAADTLWxjbXMAAAAAAAAAAAAAAAAAAAAAAAAAAAAAAAAAAAAAAAAAAAAAAAAAAAAAAAAAAAAAAA1kZXNjAAABIAAAAEBjcHJ0AAABYAAAADZ3dHB0AAABmAAAABRjaGFkAAABrAAAACxyWFlaAAAB2AAAABRiWFlaAAAB7AAAABRnWFlaAAACAAAAABRyVFJDAAACFAAAACBnVFJDAAACFAAAACBiVFJDAAACFAAAACBjaHJtAAACNAAAACRkbW5kAAACWAAAACRkbWRkAAACfAAAACRtbHVjAAAAAAAAAAEAAAAMZW5VUwAAACQAAAAcAEcASQBNAFAAIABiAHUAaQBsAHQALQBpAG4AIABzAFIARwBCbWx1YwAAAAAAAAABAAAADGVuVVMAAAAaAAAAHABQAHUAYgBsAGkAYwAgAEQAbwBtAGEAaQBuAABYWVogAAAAAAAA9tYAAQAAAADTLXNmMzIAAAAAAAEMQgAABd7///MlAAAHkwAA/ZD///uh///9ogAAA9wAAMBuWFlaIAAAAAAAAG+gAAA49QAAA5BYWVogAAAAAAAAJJ8AAA+EAAC2xFhZWiAAAAAAAABilwAAt4cAABjZcGFyYQAAAAAAAwAAAAJmZgAA8qcAAA1ZAAAT0AAACltjaHJtAAAAAAADAAAAAKPXAABUfAAATM0AAJmaAAAmZwAAD1xtbHVjAAAAAAAAAAEAAAAMZW5VUwAAAAgAAAAcAEcASQBNAFBtbHVjAAAAAAAAAAEAAAAMZW5VUwAAAAgAAAAcAHMAUgBHAEJBTFBIdwEAAA2AXdu26mRHkE8qgB5iRbw0gUsH7nBDD95EXgs4PUAFfOrNq2CPI+98RAQbt20kZc9KbaKJXwDmq7XFXI2iz1ydpUxc83sgrrmzivh/djsz01ea1PQBNx3cdMhMn9mlpq9WYtMXXY0+7KucfuprI9Mu4Ghu0OXuJDsqH5nWJtQjU8/abjC7w91JYG83kJve0LgbLOxy0+U+7YHK3WDX3G5Q9CVfVNViG1nB3cDRowc6pwd0N9jV+ciEwJaaFDx6YG4JPo0tqcmi7+bRg2GvBk9NKp0eUjeyOM/MT16jfm5bxFWVDyCu9zvm5/OC+fk6aBDX9yUzId9MqOnP1qb/JGr6dUNs+r2r0ccvKqcf+trIlFzNDd64O8lI5SPTVZN6ZHq1tht8j7g7CeztBnLTK427wUfipst92gOVu0EytxuUL8FlIyu4Gzh69EDn9IDuBknnIxMCW2pS8OiBuSX4MLakJssXN48ejF9r8NSk0ukhdSOLY2Y6AABWUDggzgUAAPArAJ0BKn0ALAE+bTSVSCQjIiEi83vAgA2JZ27gwJf4A6wZQM9JfZX9gFxRtaPfLMHoAdL7+wGFO/4QwZqqgxPGRmHVnVT2FpBegRg2TSDNRuJhcAnxFMaUEQuYJANqgmQ68zCk+hRkQzX+XknLzGkzauUlRLoHPZB36LI/jXeXZae5Z99Ca5LtCE1iS5Uf3DugN6q4MwrZ9FX7fnjai7vGV3ukjqWvlwJiBDDDUUJV1JprOZiOrJ3lEu1bMvyAMF4W2XTEBvI727jEWufsVnqoItP5mCnOhnczaM5i0DtehYAygXGKFF9UjrCCzO1l9P/eKHpUX0WW1tSW+uiBRB6T0EVYqKSlMv/msycQJvEG7LV3KBH6eHTHD2JH+CobvdcsgAaIqFuvd7QTYcU0lVQzg3iGz72giTDCKmMTLthRjx+wwRtxO2Kn4C1jbJvoNohFbO8hZDjyTTX6SYQ2+v8eAg7ocdv8AAD947AAcjMojlvRiQBZjOL1h/xYABCPhTUx3ZXjooQ1mXoAI3YGQ6rSWfY45IpdbDvu8WgHQnTSgOtCPbUSPVdiH7RDDjhhxDYhrw27gipC822VcD0/clMWeVssSkfgDKchN475iRg5ygQ8blzfLTy67GjdL55wwflPsWXX/zGTrmGAsExHCcN916PYHNrS78nY822wnaXYm9vk9PYkQR1SGy9ldkHp3xGDmOtdz21D5JFB5oyZ9z/JF/2LXMI4o9hqSL93MWM9l/ILAFIOwS4xJfKt8OidGLqW/5YFMw+U+xcvYLjRhMNfQqocwgwKOhDt8UxtiJSD7BC/cyISfYOqtvPjKAb1GxqGeMktwHHAINmIHHyFFEN09gvKm3U63ph9eHialJXKS+EtZPVdp1mAM2nBVajTIfjUJWXb6GB0Z2HvZVEj/TDI9N7tJMiT6kZIgqL32rpUMzIVCOvrCNPaK7U+HCQoxfwwlmvsvKMhDLx1ZnBgKimtflLlRxT4rtDkLHp3sj7cg2PNFLe2ANOYumgoYHH/DNJSKNz2dUS5vKc0zsCC4MMM+yYdke8NGdNOdYQ6dHM7xdyB3WpS5rPOu6SPj1SfaHt6OqYBCnnFyl/+hF2u/zSaOtfwmxFNrU2SkT6Ln2jDWP1TB7PHNtrMdPKHo0DvXl3NuEOZ5PH6rrpd+zNhZMhia+nSYZE7xErmViLtuh7Bo1hKXXDeRT4tlt5ebR+IgWf7Ohsb9nWrjKkp3zZ4xuGSC/GpnYAw8X9FZSCg2J8j2dxgfge+Lepx7hMVS1ThEmyvv3WIvCkx3Y7t+Yg0wzqcGlwOyN7c0p/mB+OM37p5xbielXdab1S79YMuYACQ/7JPOni87DOXvqrk+eLe2NPAALSrD3C+rrL7Z405BzeBrvCcCHoXrVbVtlocfelZK1ZLMm77n8nZXXIk0difWsHyMbvLzKqgKHftyscnSUwgqkEMddWwFpkQL/aR5ZlTQZD7ojy13nXw/wITLU1ArPpm5SoSLgLbJaIhpIh36x74l3+rpedd5DnwovZ2tca4pP4AGkdLycpqiLAve9Syd5Y7oesz6d3PK/DFOuUk/h5DUY36RyUurHOVTOSVNUkNJ+f+acEFU9Jr03poIEXwYylUeS8t36a/xncLB9WhOoA72+27sevtXC3/Rh4FYXvQX7HGXFRUZAPI/EZvOu10dG4IY/apJQLgHf3wmHd7Zh1//46PlwB6mJXNo2Xt2yvWd0clnzvzT9tUmUQSei3dopW0j8XQvopDmNv/iFzbMX6gjMV2pGuNHOrrhU12cq+I5IAUY6Ox/k+iSdHDDnAUruwjdQx9VCsD6fuoPoL/RydYCNgV8cvf+S5MfM88Wlkg6+r5ffNW+bKwzxYltau2GE8PB98Yv3Jg3sNM/ZIBpKK0/Q7W+w/eTF4F/mQa06YIdfAtuGlaUBDp2xnRaZRSbqPH5Kj9cdkX6se/Ix+luoiEKfEN6DJABYq4/GAAAABFWElGfgwAAElJKgAIAAAACgAAAQQAAQAAAH0AAAABAQQAAQAAACwBAAACAQMAAwAAAIYAAAASAQMAAQAAAAEAAAAaAQUAAQAAAIwAAAAbAQUAAQAAAJQAAAAoAQMAAQAAAAIAAAAxAQIADQAAAJwAAAAyAQIAFAAAAKoAAABphwQAAQAAAL4AAADQAAAACAAIAAgALAEAAAEAAAAsAQAAAQAAAEdJTVAgMi4xMC4zMAAAMjAyMzowOToxNSAyMzowODoxNQABAAGgAwABAAAAAQAAAAAAAAAJAP4ABAABAAAAAQAAAAABBAABAAAAagAAAAEBBAABAAAAAAEAAAIBAwADAAAAQgEAAAMBAwABAAAABgAAAAYBAwABAAAABgAAABUBAwABAAAAAwAAAAECBAABAAAASAEAAAICBAABAAAANQsAAAAAAAAIAAgACAD/2P/gABBKRklGAAEBAAABAAEAAP/bAEMACAYGBwYFCAcHBwkJCAoMFA0MCwsMGRITDxQdGh8eHRocHCAkLicgIiwjHBwoNyksMDE0NDQfJzk9ODI8LjM0Mv/bAEMBCQkJDAsMGA0NGDIhHCEyMjIyMjIyMjIyMjIyMjIyMjIyMjIyMjIyMjIyMjIyMjIyMjIyMjIyMjIyMjIyMjIyMv/AABEIAQAAagMBIgACEQEDEQH/xAAfAAABBQEBAQEBAQAAAAAAAAAAAQIDBAUGBwgJCgv/xAC1EAACAQMDAgQDBQUEBAAAAX0BAgMABBEFEiExQQYTUWEHInEUMoGRoQgjQrHBFVLR8CQzYnKCCQoWFxgZGiUmJygpKjQ1Njc4OTpDREVGR0hJSlNUVVZXWFlaY2RlZmdoaWpzdHV2d3h5eoOEhYaHiImKkpOUlZaXmJmaoqOkpaanqKmqsrO0tba3uLm6wsPExcbHyMnK0tPU1dbX2Nna4eLj5OXm5+jp6vHy8/T19vf4+fr/xAAfAQADAQEBAQEBAQEBAAAAAAAAAQIDBAUGBwgJCgv/xAC1EQACAQIEBAMEBwUEBAABAncAAQIDEQQFITEGEkFRB2FxEyIygQgUQpGhscEJIzNS8BVictEKFiQ04SXxFxgZGiYnKCkqNTY3ODk6Q0RFRkdISUpTVFVWV1hZWmNkZWZnaGlqc3R1dnd4eXqCg4SFhoeIiYqSk5SVlpeYmZqio6Slpqeoqaqys7S1tre4ubrCw8TFxsfIycrS09TV1tfY2dri4+Tl5ufo6ery8/T19vf4+fr/2gAMAwEAAhEDEQA/APn+iiigAooooAKKKKACiiigAooooAKUAkgAZJpKvWEMbgu45VuDQA+zttm2Vtwfng1doPWjmqsS2YNFFFSUFFFFABRRRQAUUUUAFFFW7SxkuGVireUc5YUAR21sZ3wSVAGc4rVVFQYUAD2FSqgijCDOFGBmmHrVJEthS0lLTAwKKKKgoKKKKACiiigAoop8UMkzbYo2cgZIUZoAIo2llSNfvMQBXSWts1pZrE5BbJJx0q7pujLp8TMZBIz4OSmCtJOOatRE2UH71Ealk71DTZIU6kAp+Km5RztFFFSMKKKKACiiigArvvDejwW9pDeoJDNNFghjxyf/AK1YnhrQftsiXk3ltbKxUxtnJOP/AK9eh/ZFtrWIIoUbcKB2FXCN9QMeVeCKyblNozW7JEQCaxtQGFxVskxpDyaZinydaaBUNgKBS4pQOKXFZNlpHNUUUVQgooooAK29D0hrqYzSl4hEysoK8N/nFZEMEk77I1y2M9cV21iflRfQAGmlcDpLSMSFQqhR6AYFbNxtYRjsi1m6aOB7itSVY5InJO0hcj6VvYRhzsTuI6Gue1H7xFbc7fIRnvWBekmQ5rOTAzHGTSBakI5pQvNZSZSQ0LT9h9KkCcUtc7mbKGhyFFFFdJgFPijMsqoCAT600DJA9a2beAQIVBJyc5NAElnbi3QDCl+7DvWzZn5hWYnUVpWZw4rWOhJ2Gn/6tRVm7ZmVj0G2qWmtkir1+wCADo1NspIxJDlTnoKwrr55Ca2LiULG4rKdc1lJjSuUSlPVKn8ukYbBk1zVJm8IDCNoqqZkBIMi5+tF7fR20R53SsPlHp71zhkySTnJqIU3LVmk5qGhDRRVyztwSJHAZTngius4x9paZG+RRjgrzWjnNNAAAA4HanCrSEx6dRWhathhWetXbb7wpiOq01ztA7mtG+UtBu64HFZGnHay+1brhWtWHqtZ1J2NYRucxMNxNVyhq86ZkOOlRSrtBNc9SpY2hTKEmFrKvboRoW/KrV/chAeeBXMTzvK5LMT6D0qacHN3KnLkVkNkkZ3LMck1FS0ldVjlH20bNMpAO0Hk1qgdKiiRY12qMCph2poQ4U4U0cU9elUiWPWrlt98VUWrlsPmFJsaN6zYhhWs07eWQPSse2PSte2iMgrkr1FFXZ10IOT0KgiJycVl6pcLbxHJwa6S6Rba2LtgYFeaazqRvLgqpOwH8646MnXnpsdlaKoQ13ZSvbxrhsDIXP51SrTi0i4nj3kbARkBu9U5rWWB9siEH9K9KEofCmeU53ZBSVIqNI6ooyWOBWwPDF2Rnr9K0AhFPHSoxUgqiBwqQUwCpFFAD1FXrYciqiDNX7cAEVlORpFGvarkius022/c734GK5zS4t7rmn+LfEv9lWkdnbPiSQfMR1ArxcVKdaoqVPdnt4SMKVN1Z7IxfGXiJWuZLG2JyvDMOlY3hrQ21W5eaUH7PDyf9pvSsCWZppWkc5Zjkk16l4ciFn4ahDKFLoH+uea6K/8AseGtDfY8fGYmVWTkzEZdjSo3VWI/Csm+dGBBAI9Ku6tciK5nOeDgisPzDLl2OFHPNPD0nL3jkguoWiRwXCzMinBztPSrknijURIwS4Krk4AA4H5Vi3VyWzGmCp7iqeTXpo2NkCpBTBTxVAPUVKtRqKlValsCWMc1PA2b5UzwEz+tRA7EZvQZqlaXyxyNLK3zBeT6VjK8k7G0LJq50Gq60dKsgtuwFw/3T6e9cTc3U15O008jPIepJp9/ePe3JkY/KOFHoKrClQoqmr21Lr1nN2T0RpaLpT6rqUFqMqsjhS2Oma77VNUjRp4ocLGjeWg9ABiua8NXAtRJP0aKI7fdjx/jVa6uGdNoPzE5J9K5MRB16qi9kcMvedivdy/bJyxztHB96zrm6BGyInbyDxViaYWyDADc4xmsonJr0IxUVZGiVhaSkoqhm2KkUU0CpFFDAeoqZajWnggDJrKUi4oW4k2Wsh/2TXNsxJPNaeoXYI8pDnPXFZXeqpqy1HJ9goFL0oUFmAAyTWhBrWN1st3QZ3npUc84gQ8gyEZwe9EcfkQMf4sZNZjyPI25zk1Cgk2ybBI5kcuep9KbiiiqGJijFLTaAN4VIopiipAQOM1DZSQpcIhZugGaoXN+Hj2xMQT3x2p1/OBH5Q6t1rNNEY31KbtoB60lFFaEhV+3hEKeZJgMfXtUdtCFUzScAcjNR3Vx5pKqQUByDigTG3NwZmAA2gZ6HrVbmnUUhDeaOadRQA3minUlAG+DVC6uGE52NjAxS3czoyqjY7nFUick+9TFFCu7O2WJJptFFWAVYtbfzW3N90frTIITM+P4R1NWpp0hQIm09QcHpQIS8nWNDDg5I4NZ2aMUYpCDNGaMUYoAM0ZoxRigAzSUuKMUASu7MxJOSabSnrSUxhTo42lcKvWkVS7BVGSegrRjRbWEsRk96AEkzaWw8vGc96zWYsxJ6k0+edpZCQWCn+HNQ0hDqKbRQA6im0UAOoptFADqbRzRQBJRRW9pGlRrZ/2pfoTalmijVWwxfbkE+3IpjbsX9GsV0u2W+miU3JJAjlHRWXgj35zXPzQXE7hjEeBjitLUtcM4RfM3MgCk7cZwMD9Kzv7Sk7P+gqdQbvsQ/YJ/+ebUfYJ/+ebVN/aUv/PT9BR/aUv/AD0/QUCIfsE//PNqPsE//PNqm/tKX/np+go/tKX/AJ6foKAIfsE//PNqPsE//PNqm/tKX/np+go/tKX/AJ6foKAIfsE//PNqPsE//PNqm/tKX/np+go/tKX/AJ6foKAIfsE//PNqrtEysVKnIOKvf2lL/wA9P0FUnmZpGYnqSaYFzT7IXMhaRgkaqWyf4iBnFTX2oF2aOMbI85CKeAaua6beydI9P3GzkXMfmfe6AHP45rn9xoAfuz1FGR6UzNG40APyPSjI9KZuNG40APyPSjI9KZuNG40APyPSjI9KZuNG40APyPSjI9KZuNG40APyPSoyeTS7jTaAP//ZAFhNUCDYDgAAPD94cGFja2V0IGJlZ2luPSLvu78iIGlkPSJXNU0wTXBDZWhpSHpyZVN6TlRjemtjOWQiPz4gPHg6eG1wbWV0YSB4bWxuczp4PSJhZG9iZTpuczptZXRhLyIgeDp4bXB0az0iWE1QIENvcmUgNC40LjAtRXhpdjIiPiA8cmRmOlJERiB4bWxuczpyZGY9Imh0dHA6Ly93d3cudzMub3JnLzE5OTkvMDIvMjItcmRmLXN5bnRheC1ucyMiPiA8cmRmOkRlc2NyaXB0aW9uIHJkZjphYm91dD0iIiB4bWxuczp4bXBNTT0iaHR0cDovL25zLmFkb2JlLmNvbS94YXAvMS4wL21tLyIgeG1sbnM6c3RFdnQ9Imh0dHA6Ly9ucy5hZG9iZS5jb20veGFwLzEuMC9zVHlwZS9SZXNvdXJjZUV2ZW50IyIgeG1sbnM6R0lNUD0iaHR0cDovL3d3dy5naW1wLm9yZy94bXAvIiB4bWxuczpkYz0iaHR0cDovL3B1cmwub3JnL2RjL2VsZW1lbnRzLzEuMS8iIHhtbG5zOnRpZmY9Imh0dHA6Ly9ucy5hZG9iZS5jb20vdGlmZi8xLjAvIiB4bWxuczp4bXA9Imh0dHA6Ly9ucy5hZG9iZS5jb20veGFwLzEuMC8iIHhtcE1NOkRvY3VtZW50SUQ9ImdpbXA6ZG9jaWQ6Z2ltcDozOWVlZTEwMC02NWUxLTQxYjYtYjM5Yy0yZGUyNTNiMmM4MDgiIHhtcE1NOkluc3RhbmNlSUQ9InhtcC5paWQ6ZTM3ZWU1Y2MtNjNkMS00ZWMzLTk1MTktODVjZmJmMzNhYmVkIiB4bXBNTTpPcmlnaW5hbERvY3VtZW50SUQ9InhtcC5kaWQ6MmEyZjIwNjQtOTFlNi00OWJhLWE0ODQtMjFiMjdmYWVlNTU0IiBHSU1QOkFQST0iMi4wIiBHSU1QOlBsYXRmb3JtPSJMaW51eCIgR0lNUDpUaW1lU3RhbXA9IjE2OTQ3ODY4OTYyODU3MzQiIEdJTVA6VmVyc2lvbj0iMi4xMC4zMCIgZGM6Rm9ybWF0PSJpbWFnZS93ZWJwIiB0aWZmOk9yaWVudGF0aW9uPSIxIiB4bXA6Q3JlYXRvclRvb2w9IkdJTVAgMi4xMCI+IDx4bXBNTTpIaXN0b3J5PiA8cmRmOlNlcT4gPHJkZjpsaSBzdEV2dDphY3Rpb249InNhdmVkIiBzdEV2dDpjaGFuZ2VkPSIvIiBzdEV2dDppbnN0YW5jZUlEPSJ4bXAuaWlkOjhhNTk1ZDY0LTRjNDYtNDExZS04NmU1LTJjZDkwYzcwZjFlNCIgc3RFdnQ6c29mdHdhcmVBZ2VudD0iR2ltcCAyLjEwIChMaW51eCkiIHN0RXZ0OndoZW49IjIwMjMtMDktMTNUMjI6NDY6NTgrMDk6MDAiLz4gPHJkZjpsaSBzdEV2dDphY3Rpb249InNhdmVkIiBzdEV2dDpjaGFuZ2VkPSIvIiBzdEV2dDppbnN0YW5jZUlEPSJ4bXAuaWlkOjg2MjhiMzFlLThlZGQtNDE0Ny1hM2Y2LWQxYjc4N2FmODNjMCIgc3RFdnQ6c29mdHdhcmVBZ2VudD0iR2ltcCAyLjEwIChMaW51eCkiIHN0RXZ0OndoZW49IjIwMjMtMDktMTRUMjI6MzQ6MzcrMDk6MDAiLz4gPHJkZjpsaSBzdEV2dDphY3Rpb249InNhdmVkIiBzdEV2dDpjaGFuZ2VkPSIvIiBzdEV2dDppbnN0YW5jZUlEPSJ4bXAuaWlkOmQwNjY0MTkzLTMyYTUtNDJhMy1iZTY4LWQyN2YwOTM0NTQ4MiIgc3RFdnQ6c29mdHdhcmVBZ2VudD0iR2ltcCAyLjEwIChMaW51eCkiIHN0RXZ0OndoZW49IjIwMjMtMDktMTRUMjI6NDQ6MDMrMDk6MDAiLz4gPHJkZjpsaSBzdEV2dDphY3Rpb249InNhdmVkIiBzdEV2dDpjaGFuZ2VkPSIvIiBzdEV2dDppbnN0YW5jZUlEPSJ4bXAuaWlkOmMxZjljMmNkLTBlZTEtNDkyOS1iMjc3LTJkZDRmZWEyMjJiMyIgc3RFdnQ6c29mdHdhcmVBZ2VudD0iR2ltcCAyLjEwIChMaW51eCkiIHN0RXZ0OndoZW49IjIwMjMtMDktMTVUMjM6MDg6MTYrMDk6MDAiLz4gPC9yZGY6U2VxPiA8L3htcE1NOkhpc3Rvcnk+IDwvcmRmOkRlc2NyaXB0aW9uPiA8L3JkZjpSREY+IDwveDp4bXBtZXRhPiAgICAgICAgICAgICAgICAgICAgICAgICAgICAgICAgICAgICAgICAgICAgICAgICAgICAgICAgICAgICAgICAgICAgICAgICAgICAgICAgICAgICAgICAgICAgICAgICAgICAgICAgICAgICAgICAgICAgICAgICAgICAgICAgICAgICAgICAgICAgICAgICAgICAgICAgICAgICAgICAgICAgICAgICAgICAgICAgICAgICAgICAgICAgICAgICAgICAgICAgICAgICAgICAgICAgICAgICAgICAgICAgICAgICAgICAgICAgICAgICAgICAgICAgICAgICAgICAgICAgICAgICAgICAgICAgICAgICAgICAgICAgICAgICAgICAgICAgICAgICAgICAgICAgICAgICAgICAgICAgICAgICAgICAgICAgICAgICAgICAgICAgICAgICAgICAgICAgICAgICAgICAgICAgICAgICAgICAgICAgICAgICAgICAgICAgICAgICAgICAgICAgICAgICAgICAgICAgICAgICAgICAgICAgICAgICAgICAgICAgICAgICAgICAgICAgICAgICAgICAgICAgICAgICAgICAgICAgICAgICAgICAgICAgICAgICAgICAgICAgICAgICAgICAgICAgICAgICAgICAgICAgICAgICAgICAgICAgICAgICAgICAgICAgICAgICAgICAgICAgICAgICAgICAgICAgICAgICAgICAgICAgICAgICAgICAgICAgICAgICAgICAgICAgICAgICAgICAgICAgICAgICAgICAgICAgICAgICAgICAgICAgICAgICAgICAgICAgICAgICAgICAgICAgICAgICAgICAgICAgICAgICAgICAgICAgICAgICAgICAgICAgICAgICAgICAgICAgICAgICAgICAgICAgICAgICAgICAgICAgICAgICAgICAgICAgICAgICAgICAgICAgICAgICAgICAgICAgICAgICAgICAgICAgICAgICAgICAgICAgICAgICAgICAgICAgICAgICAgICAgICAgICAgICAgICAgICAgICAgICAgICAgICAgICAgICAgICAgICAgICAgICAgICAgICAgICAgICAgICAgICAgICAgICAgICAgICAgICAgICAgICAgICAgICAgICAgICAgICAgICAgICAgICAgICAgICAgICAgICAgICAgICAgICAgICAgICAgICAgICAgICAgICAgICAgICAgICAgICAgICAgICAgICAgICAgICAgICAgICAgICAgICAgICAgICAgICAgICAgICAgICAgICAgICAgICAgICAgICAgICAgICAgICAgICAgICAgICAgICAgICAgICAgICAgICAgICAgICAgICAgICAgICAgICAgICAgICAgICAgICAgICAgICAgICAgICAgICAgICAgICAgICAgICAgICAgICAgICAgICAgICAgICAgICAgICAgICAgICAgICAgICAgICAgICAgICAgICAgICAgICAgICAgICAgICAgICAgICAgICAgICAgICAgICAgICAgICAgICAgICAgICAgICAgICAgICAgICAgICAgICAgICAgICAgICAgICAgICAgICAgICAgICAgICAgICAgICAgICAgICAgICAgICAgICAgICAgICAgICAgICAgICAgICAgICAgICAgICAgICAgICAgICAgICAgICAgICAgICAgICAgICAgICAgICAgICAgICAgICAgICAgICAgICAgICAgICAgICAgICAgICAgICAgICAgICAgICAgICAgICAgICAgICAgICAgICAgICAgICAgICAgICAgICAgICAgICAgICAgICAgICAgICAgICAgICAgICAgICAgICAgICAgICAgICAgICAgICAgICAgICAgICAgICAgICAgICAgICAgICAgICAgICAgICAgICAgICAgICAgICAgICAgICAgICAgICAgICAgICAgICAgICAgICAgICAgICAgICAgICAgICAgICAgICAgICAgICAgICAgICAgICAgICAgICAgICAgICAgICAgICAgICAgICAgICAgICAgICAgICAgICAgICAgICAgICAgICAgICAgICAgICAgICAgICAgICAgICAgICAgICAgICAgICAgICAgICAgICAgICAgICAgICAgICAgICAgICAgICAgICAgICAgICAgICAgICAgICAgICAgICAgICAgICAgICAgICAgICAgICAgICAgICAgICAgICAgICAgICAgICAgICAgICAgICAgICAgICAgICAgICAgICAgICAgICAgICAgICAgICAgICAgICAgICAgICAgICAgICAgICAgICAgICAgICAgICAgICAgICAgICAgICAgICAgICAgICAgICAgICAgICAgICAgICAgICAgICAgICAgICAgICAgICAgICAgICAgICAgICAgICAgICAgICAgICAgICAgICAgICAgICAgICAgICAgICAgICAgICAgICAgICAgICAgICAgICAgICAgICAgICAgICAgICAgICAgICAgICAgICAgICAgICAgICAgICAgICAgICAgICAgICAgICAgICAgICAgICAgICAgICAgICAgICAgICAgICAgICAgICAgICAgICAgIDw/eHBhY2tldCBlbmQ9InciPz4=;" parent="1" vertex="1">
                    <mxGeometry x="-1420" y="80" width="80" height="200" as="geometry"/>
                </mxCell>
                <mxCell id="40" value="" style="shape=image;verticalLabelPosition=bottom;labelBackgroundColor=default;verticalAlign=top;imageAspect=0;image=data:image/webp,UklGRjweAABXRUJQVlA4WAoAAAA8AAAAfAAAKwEASUNDUKACAAAAAAKgbGNtcwQwAABtbnRyUkdCIFhZWiAH5wAJAA8ADgADAAZhY3NwQVBQTAAAAAAAAAAAAAAAAAAAAAAAAAAAAAAAAAAA9tYAAQAAAADTLWxjbXMAAAAAAAAAAAAAAAAAAAAAAAAAAAAAAAAAAAAAAAAAAAAAAAAAAAAAAAAAAAAAAA1kZXNjAAABIAAAAEBjcHJ0AAABYAAAADZ3dHB0AAABmAAAABRjaGFkAAABrAAAACxyWFlaAAAB2AAAABRiWFlaAAAB7AAAABRnWFlaAAACAAAAABRyVFJDAAACFAAAACBnVFJDAAACFAAAACBiVFJDAAACFAAAACBjaHJtAAACNAAAACRkbW5kAAACWAAAACRkbWRkAAACfAAAACRtbHVjAAAAAAAAAAEAAAAMZW5VUwAAACQAAAAcAEcASQBNAFAAIABiAHUAaQBsAHQALQBpAG4AIABzAFIARwBCbWx1YwAAAAAAAAABAAAADGVuVVMAAAAaAAAAHABQAHUAYgBsAGkAYwAgAEQAbwBtAGEAaQBuAABYWVogAAAAAAAA9tYAAQAAAADTLXNmMzIAAAAAAAEMQgAABd7///MlAAAHkwAA/ZD///uh///9ogAAA9wAAMBuWFlaIAAAAAAAAG+gAAA49QAAA5BYWVogAAAAAAAAJJ8AAA+EAAC2xFhZWiAAAAAAAABilwAAt4cAABjZcGFyYQAAAAAAAwAAAAJmZgAA8qcAAA1ZAAAT0AAACltjaHJtAAAAAAADAAAAAKPXAABUfAAATM0AAJmaAAAmZwAAD1xtbHVjAAAAAAAAAAEAAAAMZW5VUwAAAAgAAAAcAEcASQBNAFBtbHVjAAAAAAAAAAEAAAAMZW5VUwAAAAgAAAAcAHMAUgBHAEJWUDhMEgcAAC98wEoQZShu2zaS9h88d/uNCLVt2zAum1PPoEr5Hp3sqcaYM0XbHaLu7u8ySxy3bSRJzj/rPaanyyX9IxhFktVqiTcUYAIhSAEzPyhBCCZQwC0v2rZtw6Kr5vgFCde2nY08oy/ptDNr27Zt27Zt27Zt27bt3THX6LZjp/mSt5rJk4j+u3HbSJIUzswy2qOq9weB+UUmmUUkppslpIVi8amhWFxKrlhsnpzQKzI5M/zy1sMfb90tbf2ftf5grT8o6xnhk7N+oKyfGOtHwvqZsH7mq7/Q1d/Y6q9k9XeuuljMt35BVb9hql8R1e946pc09Vua+i3LNrgmqd9z1AcU9QlDfcRwMo0I6jP8+hC+PkWvj8Hrc/D6HPtkKkDXG8j1CnC9g1sv4dZLsPUWar0GWu9h1ouQ9SbkNmgi1quA9S5evQxXb6PV62j1Otg26GPVF6DqG0j1FaD6DtDJtINTX4Kpb6HU10Dqexj1RYz6IsTJtIlQXwWo79qvL1uvb1uvb9uur1uu79utA6zWCTbrCJvbAGGxzrBXh1irU2zVMZbqHEt1jp1tALJSJ9mooyzUWfp1mP7JBFOv07TrOOU6T7cOVK0TVetEzZMJqVhn6tWhanWqVh2rVccq1bk6dbBKnaxRRyvU2QrbgG1ehxvX6aZ1vGGdb1YXmNUFRtvAYFJXGNQd7usS13WL65PJ4raucVn3wHQRSDdBdBVEVwFGJhdtXUZTt9HSdV7qPi91n3Nd6Fg3OtWVDnWnZ13quQ2kHnWr/7rWX93rVxf71s3y54RiOe6fPxTLTYkzS40PxNISArH0xAixjOTIwCsnT0zw5a0HZFmN+nWybAcaG0WdOplxbWy7RdX16WiVzLYlllb6dLRq0YrF1kqHHhvQEQWX16PD1Y6m//0FHTpcxmMKXyjq0OGM7S1ka6tDhxPHnbCqjnTocB2/b74W6wjX4TyuJrStH+1IQHW6Iv5hpao5ajcyL6bDeWavE3MvrSN5TVBlSIczrtw7W9rEHKlJlsqIDieOj7LcSOzo9s3qW1yrzG8drqgfqQnfyrAq4a5vVkCn8zqmEH3Iy0qFRs8WAR2PVQsjShjLTPMneQI6mFDGxHIMaCIIiyWizyUYpJM1u1U614lE/1Ks0j8ieYMB0cnKvv1ebp1EtmGsa5JTf5Ub0cHyXVV+dPlPxNeyrdKOeESPCcDS7bIpdy/ytwnKrvQPouqdnYXoYIZ58ap3W3NA/WBlT+lvPoVyeQA6mDDIQr86LbdtnxEXNbJD4mUDopM1DSW+IMP95Gn/kjbk3iAtQXSycm9VkkeUCosOlU9sa3Q3uDoyMoFlOq8ozmrFqsrDhiFdHkM6WSEf5ZnsqI+s+tY8kNR+oAHQ2by9O0qOpvGo7j2sIaUFQGcreLFTHWcLeOxwH9tyAdDhDEVFV3O5mqi+KYzq6BBzNVwmsvZEdIlaURS/1AMYmSyynAhenh7QNVi2EgZAh/PMklqMATqccenQVAN0OGG8uXXKhjNEhyvqZ62cInMLBuh0la1Bxd2LmG0AdLymyS+yuFVqbVpAh0tbmE2SL6Z406UBdDjjqqPiZnkrftoDJ4yP8i541jbePWQ3gMv4mCJrP0psAJ/20LEDijzD+28FtwAdrkhz4wBJPffLtzB4rAlX4rG1bflf9CXuUVrslwTOuJfz1ZkeU5xyCtPpqv8h5QDbohBfg+lwLfdzUo+xDokkD2IM2A3ganz+GWhVj7OSoRRXC9HBBC/GctxRYgZ9cuZ5U/1ZFtDBhL4LGCsZSp9KvXPGlvFP+bR1sqahTzI6Uy/keuuqpXTToKmTlXmrfivtTNnu3nhpm/bIRLaGU0JzZ3ylW55nk3po6mjnVOJLXC1zJQyJCCqhpaNleKqq6gXRPWlZvnd8p6ihsxXxS7DSp3xuvbqUp4ifdzkNHa7iv99fyFLFVZYFpVnh692E1HW6honeV1XbIFfMyJixrKih042TH67myi5X0MiEt4mf7iTRg7KhscOQXxK+83zj7GQKqeW3HdkN+DI+k1ebieKaz8kDjEwCRf3l7ySTPN0DGJkMKrquXuTB9ZAl2KBhEkk7Ov2A/qhSmCArl/Pk6mMAdIct/EMZbDeQOM/3YLuBRKZnfDZjgG5RNEDqAO0GFpXMvyswQNdobJkjArrHwA1pAV0kWzpAF4F0E0gXgZZgFUBXAXQVQGfp11WQkQmmXqdp13HKdZ5uHahaJ6rWRaAlGKlYZ+rVoWp1qlYdq1XHKtW5OnWwSp2sUUcr1NkK24BtXocb1+mmdbxhnW9WF5jVBUbbwGBSV9ChO+C6BKxbwCOTBaprgLoHpotAuslNXeWmrnJxMrm812Ve6zZvdZ2Xus9L3edcFzrWjU51pUPd6VmXem4DqUfd6r+u9Vf3+tXFvnWzpE9dLABFWElGvAcAAElJKgAIAAAACgAAAQQAAQAAAH0AAAABAQQAAQAAACwBAAACAQMAAwAAAIYAAAASAQMAAQAAAAEAAAAaAQUAAQAAAIwAAAAbAQUAAQAAAJQAAAAoAQMAAQAAAAMAAAAxAQIADQAAAJwAAAAyAQIAFAAAAKoAAABphwQAAQAAAL4AAADQAAAACAAIAAgAnQQAABkAAACdBAAAGQAAAEdJTVAgMi4xMC4zMAAAMjAyMzowOToxNSAyMzoxMjo1NAABAAGgAwABAAAAAQAAAAAAAAAJAP4ABAABAAAAAQAAAAABBAABAAAAagAAAAEBBAABAAAAAAEAAAIBAwADAAAAQgEAAAMBAwABAAAABgAAAAYBAwABAAAABgAAABUBAwABAAAAAwAAAAECBAABAAAASAEAAAICBAABAAAAdAYAAAAAAAAIAAgACAD/2P/gABBKRklGAAEBAAABAAEAAP/bAEMACAYGBwYFCAcHBwkJCAoMFA0MCwsMGRITDxQdGh8eHRocHCAkLicgIiwjHBwoNyksMDE0NDQfJzk9ODI8LjM0Mv/bAEMBCQkJDAsMGA0NGDIhHCEyMjIyMjIyMjIyMjIyMjIyMjIyMjIyMjIyMjIyMjIyMjIyMjIyMjIyMjIyMjIyMjIyMv/AABEIAQAAagMBIgACEQEDEQH/xAAfAAABBQEBAQEBAQAAAAAAAAAAAQIDBAUGBwgJCgv/xAC1EAACAQMDAgQDBQUEBAAAAX0BAgMABBEFEiExQQYTUWEHInEUMoGRoQgjQrHBFVLR8CQzYnKCCQoWFxgZGiUmJygpKjQ1Njc4OTpDREVGR0hJSlNUVVZXWFlaY2RlZmdoaWpzdHV2d3h5eoOEhYaHiImKkpOUlZaXmJmaoqOkpaanqKmqsrO0tba3uLm6wsPExcbHyMnK0tPU1dbX2Nna4eLj5OXm5+jp6vHy8/T19vf4+fr/xAAfAQADAQEBAQEBAQEBAAAAAAAAAQIDBAUGBwgJCgv/xAC1EQACAQIEBAMEBwUEBAABAncAAQIDEQQFITEGEkFRB2FxEyIygQgUQpGhscEJIzNS8BVictEKFiQ04SXxFxgZGiYnKCkqNTY3ODk6Q0RFRkdISUpTVFVWV1hZWmNkZWZnaGlqc3R1dnd4eXqCg4SFhoeIiYqSk5SVlpeYmZqio6Slpqeoqaqys7S1tre4ubrCw8TFxsfIycrS09TV1tfY2dri4+Tl5ufo6ery8/T19vf4+fr/2gAMAwEAAhEDEQA/APn+iiigAooooAKKKKACiiigAooooAKKKKACiiigAooooAKKKKACiiigAooooAKKKKACiiigAooooAKKKKACiiigAooooAKKKKACiiigAooooAKKKKACiiigAooooAKKKKACiiigAooooAKKKKACiiigAooooAKKKKACiiigAooooAKKKKACiiigAooooAKKKKACiiigAooooAKKKKACiiigAooooAKKKKACiiigAooooAKKKKACiiigAooooAKKKKACiiigAooooAKKKKACiiigAooooAKKKKACiiigAooooAKKKKACiiigAooooAKKKKACp7myurJ1W6t5IWZQwDqRkEZH6EVq+FPD114j1mO3gKxwxFZLiZ/uxJkZJruvj1qy3HjVdJitooo7GJf3ijmQsoOT9AAKAPKaKKKACiiigAooooAKKKKACiiigArQsdD1XU2hWx065uDOxSLy4yd7AZIH0rR8F+FpfF/iKLTEnS3iCmWeZzxHGPvH619O2Ftb6C721jDDbWmkyx2cPGXk3KHbHqzHYvsMmgDznSvDtjZfBa+1PQ7eY6oU+z6msmd6lXBcY9h09jXE/Frxjo/i/XoJtHt9sUSfvLhl2tMxAHPfgACtrx746udLtl0LRrlYWuPtEmpLHyA8kmdufUKAM+9eR0AFFFFABRRRQAUUUUAFFFFABRRXe/D/AOH0nima8kunltxb2wubeMoQbj5sZBP8I7/UUAcxBFqehanBDL51pJcIhZM4LRPggEehGDg17j8QPiaPCer6/o0NiJdQllSa1uGAKwlogpb13AZx9a8q+J16ZviZq0qH/UzJGntsVVH8q5rV9Wvdc1S41LUJjNdTtudj/Ie1AFSSR5ZWkkYs7kszE8knvTaKKACiiigAooooAKKKKACiirWm2pvtUtLRes8yRj8SB/WgDudA+F17N4i8MWut7re21kPLtX76oo3YPoSPyzXsh1aGz8aeDXs7cR2slldW2xf+ealcE/8AfINbGstbxXOi6veEW1rpF7LEZZOB5YhZc/TPH4V8+3PxO1NLqX7MkXlxWs1naPjmNXcEv9SBQBy3iS7N/wCJtTui27zbqRgfUbjisujqcmigAooooAKKKKACiiigAooooAK6n4cWi3vxC0WJ8bFuBIxPQBfm/pXLVLBcTWsnmW8zxPgjcjEHB9xQB3Pj/wCJGueJdQ1TTZbhF0w3R8uGMcbUJC8/r9a4GiigAooooAKKKKACiiigAooooAKKKKACiiigAooooAKKKKACiiigAooooAKKKKACiiigAooooAKKKKACiiigAooooAKKKKACiiigAooooAKKKKACiiigAooooAKKKKACiiigAooooA//2VhNUCCYDAAAPD94cGFja2V0IGJlZ2luPSLvu78iIGlkPSJXNU0wTXBDZWhpSHpyZVN6TlRjemtjOWQiPz4gPHg6eG1wbWV0YSB4bWxuczp4PSJhZG9iZTpuczptZXRhLyIgeDp4bXB0az0iWE1QIENvcmUgNC40LjAtRXhpdjIiPiA8cmRmOlJERiB4bWxuczpyZGY9Imh0dHA6Ly93d3cudzMub3JnLzE5OTkvMDIvMjItcmRmLXN5bnRheC1ucyMiPiA8cmRmOkRlc2NyaXB0aW9uIHJkZjphYm91dD0iIiB4bWxuczp4bXBNTT0iaHR0cDovL25zLmFkb2JlLmNvbS94YXAvMS4wL21tLyIgeG1sbnM6c3RFdnQ9Imh0dHA6Ly9ucy5hZG9iZS5jb20veGFwLzEuMC9zVHlwZS9SZXNvdXJjZUV2ZW50IyIgeG1sbnM6R0lNUD0iaHR0cDovL3d3dy5naW1wLm9yZy94bXAvIiB4bWxuczpkYz0iaHR0cDovL3B1cmwub3JnL2RjL2VsZW1lbnRzLzEuMS8iIHhtbG5zOnRpZmY9Imh0dHA6Ly9ucy5hZG9iZS5jb20vdGlmZi8xLjAvIiB4bWxuczp4bXA9Imh0dHA6Ly9ucy5hZG9iZS5jb20veGFwLzEuMC8iIHhtcE1NOkRvY3VtZW50SUQ9ImdpbXA6ZG9jaWQ6Z2ltcDphYjJlYTEwNC00OTJmLTRjMjUtYTRjOS1hY2VlZGZhZjkwMjQiIHhtcE1NOkluc3RhbmNlSUQ9InhtcC5paWQ6YzQ4NzI5MTItYjQ0MC00NDI3LWEzODktMmQ4ZjVmNzIzMzhjIiB4bXBNTTpPcmlnaW5hbERvY3VtZW50SUQ9InhtcC5kaWQ6ZDBmNGRhOWQtN2Q0Mi00Njc1LWJmNzYtOTdmNTczODExOTVlIiBHSU1QOkFQST0iMi4wIiBHSU1QOlBsYXRmb3JtPSJMaW51eCIgR0lNUDpUaW1lU3RhbXA9IjE2OTQ3ODcxNzY5MzIxMzUiIEdJTVA6VmVyc2lvbj0iMi4xMC4zMCIgZGM6Rm9ybWF0PSJpbWFnZS93ZWJwIiB0aWZmOk9yaWVudGF0aW9uPSIxIiB4bXA6Q3JlYXRvclRvb2w9IkdJTVAgMi4xMCI+IDx4bXBNTTpIaXN0b3J5PiA8cmRmOlNlcT4gPHJkZjpsaSBzdEV2dDphY3Rpb249InNhdmVkIiBzdEV2dDpjaGFuZ2VkPSIvIiBzdEV2dDppbnN0YW5jZUlEPSJ4bXAuaWlkOjE0Yzc1ZWI2LTcyNDgtNDFiZi04YzBiLWU5NTk5ZGFhNjcyZiIgc3RFdnQ6c29mdHdhcmVBZ2VudD0iR2ltcCAyLjEwIChMaW51eCkiIHN0RXZ0OndoZW49IjIwMjMtMDktMTVUMjM6MTI6NTYrMDk6MDAiLz4gPC9yZGY6U2VxPiA8L3htcE1NOkhpc3Rvcnk+IDwvcmRmOkRlc2NyaXB0aW9uPiA8L3JkZjpSREY+IDwveDp4bXBtZXRhPiAgICAgICAgICAgICAgICAgICAgICAgICAgICAgICAgICAgICAgICAgICAgICAgICAgICAgICAgICAgICAgICAgICAgICAgICAgICAgICAgICAgICAgICAgICAgICAgICAgICAgICAgICAgICAgICAgICAgICAgICAgICAgICAgICAgICAgICAgICAgICAgICAgICAgICAgICAgICAgICAgICAgICAgICAgICAgICAgICAgICAgICAgICAgICAgICAgICAgICAgICAgICAgICAgICAgICAgICAgICAgICAgICAgICAgICAgICAgICAgICAgICAgICAgICAgICAgICAgICAgICAgICAgICAgICAgICAgICAgICAgICAgICAgICAgICAgICAgICAgICAgICAgICAgICAgICAgICAgICAgICAgICAgICAgICAgICAgICAgICAgICAgICAgICAgICAgICAgICAgICAgICAgICAgICAgICAgICAgICAgICAgICAgICAgICAgICAgICAgICAgICAgICAgICAgICAgICAgICAgICAgICAgICAgICAgICAgICAgICAgICAgICAgICAgICAgICAgICAgICAgICAgICAgICAgICAgICAgICAgICAgICAgICAgICAgICAgICAgICAgICAgICAgICAgICAgICAgICAgICAgICAgICAgICAgICAgICAgICAgICAgICAgICAgICAgICAgICAgICAgICAgICAgICAgICAgICAgICAgICAgICAgICAgICAgICAgICAgICAgICAgICAgICAgICAgICAgICAgICAgICAgICAgICAgICAgICAgICAgICAgICAgICAgICAgICAgICAgICAgICAgICAgICAgICAgICAgICAgICAgICAgICAgICAgICAgICAgICAgICAgICAgICAgICAgICAgICAgICAgICAgICAgICAgICAgICAgICAgICAgICAgICAgICAgICAgICAgICAgICAgICAgICAgICAgICAgICAgICAgICAgICAgICAgICAgICAgICAgICAgICAgICAgICAgICAgICAgICAgICAgICAgICAgICAgICAgICAgICAgICAgICAgICAgICAgICAgICAgICAgICAgICAgICAgICAgICAgICAgICAgICAgICAgICAgICAgICAgICAgICAgICAgICAgICAgICAgICAgICAgICAgICAgICAgICAgICAgICAgICAgICAgICAgICAgICAgICAgICAgICAgICAgICAgICAgICAgICAgICAgICAgICAgICAgICAgICAgICAgICAgICAgICAgICAgICAgICAgICAgICAgICAgICAgICAgICAgICAgICAgICAgICAgICAgICAgICAgICAgICAgICAgICAgICAgICAgICAgICAgICAgICAgICAgICAgICAgICAgICAgICAgICAgICAgICAgICAgICAgICAgICAgICAgICAgICAgICAgICAgICAgICAgICAgICAgICAgICAgICAgICAgICAgICAgICAgICAgICAgICAgICAgICAgICAgICAgICAgICAgICAgICAgICAgICAgICAgICAgICAgICAgICAgICAgICAgICAgICAgICAgICAgICAgICAgICAgICAgICAgICAgICAgICAgICAgICAgICAgICAgICAgICAgICAgICAgICAgICAgICAgICAgICAgICAgICAgICAgICAgICAgICAgICAgICAgICAgICAgICAgICAgICAgICAgICAgICAgICAgICAgICAgICAgICAgICAgICAgICAgICAgICAgICAgICAgICAgICAgICAgICAgICAgICAgICAgICAgICAgICAgICAgICAgICAgICAgICAgICAgICAgICAgICAgICAgICAgICAgICAgICAgICAgICAgICAgICAgICAgICAgICAgICAgICAgICAgICAgICAgICAgICAgICAgICAgICAgICAgICAgICAgICAgICAgICAgICAgICAgICAgICAgICAgICAgICAgICAgICAgICAgICAgICAgICAgICAgICAgICAgICAgICAgICAgICAgICAgICAgICAgICAgICAgICAgICAgICAgICAgICAgICAgICAgICAgICAgICAgICAgICAgICAgICAgICAgICAgICAgICAgICAgICAgICAgICAgICAgICAgICAgICAgICAgICAgICAgICAgICAgICAgICAgICAgICAgICAgICAgICAgICAgICAgICAgICAgICAgICAgICAgICAgICAgICAgICAgICAgICAgICAgICAgICAgICAgICAgICAgICAgICAgICAgICAgICAgICAgICAgICAgICAgICAgICAgICAgICAgICAgICAgICAgICAgICAgICAgICAgICAgICAgICAgICAgICAgICAgICAgICAgICAgICAgICAgICAgICAgICAgICAgICAgICAgICAgICAgICAgICAgICAgICAgICAgICAgICAgICAgICAgICAgICAgICAgICAgICAgICAgICAgICAgICAgICAgICAgICAgICAgICAgICAgICAgICAgICAgICAgICAgICAgICAgICAgICAgICAgICAgICAgICAgICAgICAgICAgICAgICAgICAgICAgICAgICAgICAgICAgICAgICAgICAgIDw/eHBhY2tldCBlbmQ9InciPz4=;" parent="1" vertex="1">
                    <mxGeometry x="-1100" y="80" width="80" height="200" as="geometry"/>
                </mxCell>
                <mxCell id="43" value="Up stream&lt;br style=&quot;font-size: 16px;&quot;&gt;Key" style="text;html=1;align=center;verticalAlign=middle;resizable=0;points=[];autosize=1;strokeColor=none;fillColor=none;fontSize=16;" parent="1" vertex="1">
                    <mxGeometry x="-1230" y="30" width="100" height="50" as="geometry"/>
                </mxCell>
                <mxCell id="45" value="Down stream&lt;br style=&quot;font-size: 16px;&quot;&gt;Key" style="text;html=1;align=center;verticalAlign=middle;resizable=0;points=[];autosize=1;strokeColor=none;fillColor=none;fontSize=16;" parent="1" vertex="1">
                    <mxGeometry x="-1120" y="30" width="120" height="50" as="geometry"/>
                </mxCell>
                <mxCell id="46" value="Fade to&lt;br style=&quot;font-size: 16px;&quot;&gt;Black" style="text;html=1;align=center;verticalAlign=middle;resizable=0;points=[];autosize=1;strokeColor=none;fillColor=none;fontSize=16;" parent="1" vertex="1">
                    <mxGeometry x="-980" y="30" width="80" height="50" as="geometry"/>
                </mxCell>
            </root>
        </mxGraphModel>
    </diagram>
</mxfile>